<svg xmlns="http://www.w3.org/2000/svg" viewBox="0 0 759.8 100"><title>NIH Intramural Research Program: Our Research Changes Lives</title><path d="M111 95.3l26.1-47.7-26-47.6h6.5c3.6 0 7.9 2.6 9.6 5.7L150 47.6l-22.9 41.9c-1.7 3.2-6.1 5.7-9.6 5.7H111z" fill="#20558a"/><path d="M104.6 26.4V69h-7.4V49.8H78.1V69h-7.4V26.4h7.4v16.9h19.2V26.4h7.3zM63.3 69H56V26.4h7.4V69zm-14.6 0h-7.8L21.8 37.7h-.2V69h-7V26.4h7.8l19.2 31.4h.1V26.4h7V69zm81.9-21.4L104.5 0H8.7C3.9 0 0 3.9 0 8.8v77.7c0 4.8 3.9 8.8 8.7 8.8h95.8l26.1-47.7zm47.1-22.7h5.4v31h-5.4v-31zm11.4 8.5h4.7v3.3l.1.1c1.5-2.5 4-4 7-4 4.9 0 7.9 2.6 7.9 7.6v15.4h-4.9v-14c-.1-3.5-1.5-5-4.4-5-3.3 0-5.4 2.6-5.4 5.9v13.2h-4.9V33.4zm22.6 0h3.7v-6.7h4.9v6.7h4.5v3.7h-4.5v12c0 2 .2 3.1 2.4 3.1.7 0 1.4 0 2.1-.2v3.8c-1.1.1-2.1.3-3.2.3-5.2 0-6.1-2-6.2-5.7V37.1h-3.7v-3.7zm16.7 0h4.6v4.3h.1c.6-2.4 3.5-4.9 6.5-4.9 1.1 0 1.4.1 1.9.1v4.8c-.7-.1-1.4-.2-2.1-.2-3.4 0-6.1 2.7-6.1 7.7v10.7h-4.9V33.4zm34 17.5c0 1.2.3 1.7 1.2 1.7.3 0 .7 0 1.2-.1v3.4c-.7.3-2.3.6-3.1.6-2 0-3.4-.7-3.8-2.7-2 1.9-5.1 2.7-7.8 2.7-4 0-7.7-2.2-7.7-6.5 0-5.6 4.5-6.5 8.6-7 3.6-.6 6.7-.3 6.7-3.2 0-2.6-2.6-3-4.6-3-2.8 0-4.7 1.1-4.9 3.6h-4.9c.3-5.8 5.2-7.5 10.2-7.5 4.4 0 9 1.8 9 6.5v11.5zm-4.9-6.3c-1.5 1-3.9 1-6.1 1.3-2.1.3-4 1.1-4 3.7 0 2.2 2.8 2.9 4.6 2.9 2.2 0 5.6-1.1 5.6-4.3v-3.6zm10.3-11.2h4.7v3.1h.1c1.5-2.2 3.3-3.7 6.9-3.7 2.7 0 5.3 1.2 6.3 3.7 1.6-2.3 3.8-3.7 7-3.7 4.7 0 7.5 2.1 7.5 7.5v15.5h-4.9v-13c0-3.6-.2-6-4.1-6-3.3 0-4.8 2.2-4.8 6v13.1h-4.9V41.5c0-3.1-1-4.7-3.9-4.7-2.6 0-4.9 2.1-4.9 5.8v13.3h-4.9V33.4zm57.4 22.5h-4.9v-3.1h-.1c-1.2 2.3-3.9 3.7-6.4 3.7-5.9 0-8.4-3-8.4-8.8V33.4h4.9v13.7c0 3.9 1.6 5.4 4.3 5.4 4.1 0 5.5-2.6 5.5-6.1v-13h4.9v22.5zm5.2-22.5h4.6v4.3h.1c.6-2.4 3.5-4.9 6.5-4.9 1.1 0 1.4.1 1.9.1v4.8c-.7-.1-1.4-.2-2.1-.2-3.4 0-6.1 2.7-6.1 7.7v10.7h-4.9V33.4zm34 17.5c0 1.2.3 1.7 1.2 1.7.3 0 .7 0 1.2-.1v3.4c-.7.3-2.3.6-3.1.6-2 0-3.4-.7-3.8-2.7-2 1.9-5.1 2.7-7.8 2.7-4 0-7.7-2.2-7.7-6.5 0-5.6 4.5-6.5 8.6-7 3.6-.6 6.7-.3 6.7-3.2 0-2.6-2.6-3-4.6-3-2.8 0-4.7 1.1-4.9 3.6h-4.9c.3-5.8 5.2-7.5 10.2-7.5 4.4 0 9 1.8 9 6.5v11.5zm-4.9-6.3c-1.5 1-3.9 1-6.1 1.3-2.1.3-4 1.1-4 3.7 0 2.2 2.8 2.9 4.6 2.9 2.2 0 5.6-1.1 5.6-4.3v-3.6zm10.4-19.7h4.9v31h-4.9v-31zm23 0h14.8c6.8 0 10.2 3.1 10.2 8.4 0 5.9-4.1 7.5-5.1 7.8v.1c1.9.3 4.6 1.6 4.6 6.5 0 3.6.5 6.9 1.7 8.2h-5.8c-.8-1.3-.8-3-.8-4.6 0-5.7-1.2-8.2-6.2-8.2h-8v12.7h-5.4V24.9zm5.5 14.1h8.9c3.4 0 5.3-1.7 5.3-4.9 0-3.9-2.6-4.7-5.4-4.7h-8.8V39zm28.2 6.9c0 3.5 1.9 6.6 6 6.6 2.9 0 4.6-1.3 5.5-3.7h4.7c-1.1 4.9-5.2 7.6-10.1 7.6-7 0-11-4.9-11-11.8 0-6.4 4.2-11.8 10.8-11.8 7.1 0 11.4 6.4 10.6 13.1h-16.5zm11.6-3.2c-.2-3.1-2.3-5.9-5.6-5.9-3.4 0-5.8 2.6-5.9 5.9h11.5zm12.4 6c.3 2.9 2.4 3.9 5.1 3.9 1.9 0 5.1-.4 5-2.9-.1-2.6-3.7-2.9-7.3-3.7-3.6-.8-7.2-2.1-7.2-6.6 0-4.9 5.3-6.4 9.4-6.4 4.6 0 8.8 1.9 9.4 6.9h-5.2c-.4-2.3-2.4-3-4.6-3-1.4 0-4.1.3-4.1 2.3 0 2.4 3.6 2.8 7.3 3.6 3.6.8 7.2 2.1 7.2 6.5 0 5.3-5.4 7.3-10 7.3-5.6 0-9.8-2.5-9.9-7.8h4.9zm22.6-2.8c0 3.5 1.9 6.6 6 6.6 2.9 0 4.6-1.3 5.5-3.7h4.7c-1.1 4.9-5.2 7.6-10.2 7.6-7 0-11-4.9-11-11.8 0-6.4 4.2-11.8 10.8-11.8 7.1 0 11.4 6.4 10.6 13.1h-16.4zm11.6-3.2c-.2-3.1-2.3-5.9-5.6-5.9-3.4 0-5.8 2.6-5.9 5.9h11.5zm27.5 8.2c0 1.2.3 1.7 1.2 1.7.3 0 .7 0 1.2-.1v3.4c-.7.3-2.3.6-3.1.6-2 0-3.4-.7-3.8-2.7-1.9 1.9-5.1 2.7-7.8 2.7-4 0-7.7-2.2-7.7-6.5 0-5.6 4.5-6.5 8.6-7 3.6-.6 6.7-.3 6.7-3.2 0-2.6-2.6-3-4.6-3-2.8 0-4.7 1.1-4.9 3.6h-4.9c.3-5.8 5.2-7.5 10.2-7.5 4.4 0 9 1.8 9 6.5v11.5zm-5-6.3c-1.5 1-3.9 1-6.1 1.3-2.1.3-4 1.1-4 3.7 0 2.2 2.8 2.9 4.6 2.9 2.2 0 5.5-1.1 5.5-4.3v-3.6zm10.3-11.2h4.6v4.3h.1c.6-2.4 3.5-4.9 6.5-4.9 1.1 0 1.4.1 1.9.1v4.8c-.7-.1-1.4-.2-2.1-.2-3.4 0-6.1 2.7-6.1 7.7v10.7h-4.9V33.4zm29.6 7.5c-.4-2.7-2.4-4.2-5.1-4.2-2.6 0-6.2 1.3-6.2 8.2 0 3.7 1.6 7.7 5.9 7.7 2.9 0 4.9-1.9 5.3-5.1h4.9c-.9 5.8-4.5 9-10.3 9-7 0-10.9-5-10.9-11.6 0-6.8 3.7-12.1 11.1-12.1 5.2 0 9.6 2.6 10.1 8.1h-4.8zm9-16h4.9v11.5h.1c1.2-2 3.8-3.6 6.7-3.6 4.9 0 7.9 2.6 7.9 7.6v15.4h-4.9v-14c-.1-3.5-1.5-5-4.4-5-3.3 0-5.4 2.6-5.4 5.9v13.2h-4.9v-31zm37.6 0h13.7c8.8 0 10.5 5.7 10.5 9.6 0 3.8-1.7 9.5-10.5 9.5h-8.2v11.9h-5.4v-31zm5.4 14.6h7.9c2.4 0 5.4-1.2 5.4-5.1 0-4.1-2.5-5.1-5.3-5.1h-8v10.2zm22.8-6.1h4.6v4.3h.1c.6-2.4 3.5-4.9 6.5-4.9 1.1 0 1.4.1 1.9.1v4.8c-.7-.1-1.4-.2-2.1-.2-3.4 0-6.1 2.7-6.1 7.7v10.7H622V33.4zm13.5 11.2c0-6.9 4.1-11.8 11.3-11.8 7.2 0 11.3 4.9 11.3 11.8s-4.1 11.8-11.3 11.8c-7.2.1-11.3-4.9-11.3-11.8zm17.7 0c0-3.9-2-7.9-6.4-7.9s-6.4 4-6.4 7.9c0 3.9 1.9 7.9 6.4 7.9 4.4.1 6.4-4 6.4-7.9zM683 54.7c0 6.7-3.9 10.1-11 10.1-4.5 0-9.6-1.7-10-7h4.9c.6 2.8 2.9 3.3 5.4 3.3 4 0 5.8-2 5.8-5.7V52h-.1c-1.4 2.5-3.9 3.9-6.7 3.9-7.1 0-10.1-5.4-10.1-11.8 0-6 3.8-11.2 10.1-11.2 2.8 0 5.4 1.2 6.6 3.7h.1v-3.1h4.9v21.2zm-5-10.6c0-3.9-1.7-7.4-6-7.4-4.4 0-5.9 4.1-5.9 7.8s1.8 7.4 5.9 7.4c4.4 0 6-3.9 6-7.8zm9.9-10.7h4.6v4.3h.1c.6-2.4 3.5-4.9 6.5-4.9 1.1 0 1.4.1 1.9.1v4.8c-.7-.1-1.4-.2-2.1-.2-3.4 0-6.1 2.7-6.1 7.7v10.7h-4.9V33.4zM722 50.9c0 1.2.3 1.7 1.2 1.7.3 0 .7 0 1.2-.1v3.4c-.7.3-2.3.6-3.1.6-2 0-3.4-.7-3.8-2.7-2 1.9-5.1 2.7-7.8 2.7-4 0-7.7-2.2-7.7-6.5 0-5.6 4.5-6.5 8.6-7 3.6-.6 6.7-.3 6.7-3.2 0-2.6-2.6-3-4.6-3-2.8 0-4.7 1.1-4.9 3.6h-4.9c.3-5.8 5.2-7.5 10.2-7.5 4.4 0 9 1.8 9 6.5v11.5zm-5-6.3c-1.5 1-3.9 1-6.1 1.3-2.1.3-4 1.1-4 3.7 0 2.2 2.8 2.9 4.6 2.9 2.2 0 5.6-1.1 5.6-4.3v-3.6zm10.3-11.2h4.7v3.1h.1c1.5-2.2 3.3-3.7 6.9-3.7 2.7 0 5.3 1.2 6.3 3.7 1.6-2.3 3.8-3.7 7-3.7 4.7 0 7.5 2.1 7.5 7.5v15.5h-4.9v-13c0-3.6-.2-6-4.1-6-3.3 0-4.8 2.2-4.8 6v13.1h-4.9V41.5c0-3.1-1-4.7-3.9-4.7-2.6 0-4.9 2.1-4.9 5.8v13.3h-4.9V33.4zM176.4 81.7c.5-1.4 1.2-2.7 2.1-3.8.9-1.1 2-2 3.4-2.6 1.3-.6 2.8-1 4.5-1 1.3 0 2.4.2 3.4.7 1 .4 1.9 1.1 2.6 1.8.7.8 1.2 1.7 1.6 2.7.4 1.1.6 2.2.6 3.4 0 1.5-.2 3-.7 4.4-.5 1.4-1.2 2.7-2.1 3.8-.9 1.1-2 2-3.3 2.6-1.3.6-2.8 1-4.4 1-2.7 0-4.7-.7-6.2-2.2-1.4-1.5-2.2-3.6-2.2-6.3-.1-1.6.2-3.1.7-4.5zm2.2 7.1c.2.8.6 1.5 1.1 2 .5.6 1.1 1 1.8 1.3.7.3 1.6.5 2.6.5 1.3 0 2.4-.3 3.4-.8 1-.6 1.8-1.3 2.5-2.2.7-.9 1.2-1.9 1.5-3.1.3-1.1.5-2.3.5-3.5 0-.9-.1-1.8-.4-2.5-.2-.8-.6-1.5-1.1-2-.5-.6-1.1-1-1.7-1.4-.7-.3-1.5-.5-2.4-.5-1.4 0-2.6.3-3.6.9-1 .6-1.9 1.3-2.5 2.2-.7.9-1.2 1.9-1.5 3.1-.3 1.2-.5 2.3-.5 3.5-.1.8.1 1.7.3 2.5zm25.8 5.5l.4-2.1h-.1c-.6.8-1.3 1.4-2.2 1.8-.9.4-1.8.6-2.8.6-1.3 0-2.3-.3-3-.9-.6-.6-1-1.5-1-2.7 0-.3 0-.7.1-1.2s.2-1 .3-1.6l1.7-8.1h2.3l-1.8 8.3c0 .1-.1.3-.1.5s-.1.4-.1.6c0 .2-.1.4-.1.6v.5c0 .7.2 1.2.7 1.5.5.3 1.1.5 1.7.5.7 0 1.3-.1 1.8-.4.6-.3 1.1-.6 1.5-1 .4-.4.8-.9 1.1-1.5.3-.6.5-1.1.6-1.7l1.6-7.8h2.3l-3 14.1h-1.9zm11.2-14.2l-.7 3h.1c.5-1 1.2-1.8 2.1-2.4.8-.6 1.9-1 3-1h.8l-.5 2.5H219c-.2 0-.4.1-.7.1-.6.2-1.2.4-1.7.8s-.9.9-1.3 1.5c-.3.5-.6 1-.7 1.6-.2.6-.3 1.2-.4 1.7l-1.3 6.3h-2.3l2.9-14.1h2.1zm23.5-5.3c.8 0 1.6.1 2.4.2.8.2 1.5.4 2.1.8.6.4 1.1.9 1.4 1.5.4.6.5 1.4.5 2.4 0 .7-.1 1.3-.3 1.9-.2.6-.5 1.1-.9 1.6s-.8.9-1.4 1.2c-.5.3-1.1.5-1.8.6.4.1.8.3 1.1.6.3.3.5.6.7 1 .2.4.3.8.3 1.2v1.4c0 .4-.1.9-.2 1.3s-.1.9-.2 1.3V93c0 .4.2.8.4 1.2h-2.7c-.1-.4-.2-.9-.2-1.6 0-.7.1-1.6.3-2.6.1-.9.2-1.6.1-2.1s-.2-1-.4-1.2c-.2-.3-.4-.5-.7-.6s-.6-.2-.9-.2h-6.8l-1.7 8.3h-2.6l4.1-19.5h7.4zm-1 9c1 0 1.8-.1 2.5-.4.6-.3 1.1-.6 1.5-1 .3-.4.6-.8.7-1.3.1-.4.2-.8.2-1.2 0-.6-.1-1.1-.3-1.5-.2-.4-.5-.7-.9-.9-.4-.2-.8-.4-1.2-.5-.5-.1-.9-.1-1.4-.1h-5.4l-1.4 6.8h5.7zm10.5 5.3c0 .5.1 1 .3 1.5.2.4.5.8.8 1.1.3.3.7.5 1.2.7s.9.2 1.4.2c1 0 1.9-.2 2.6-.7.7-.5 1.2-1.1 1.5-2h2.3c-.2.8-.5 1.5-.9 2.1-.4.6-.9 1.1-1.4 1.5-.6.4-1.2.7-1.9.9-.7.2-1.4.3-2.2.3-1.2 0-2.1-.2-2.9-.5-.8-.4-1.4-.8-1.8-1.4-.5-.6-.8-1.2-1-1.8-.2-.7-.3-1.3-.3-1.9 0-1.3.2-2.6.6-3.7.4-1.1.9-2.1 1.6-2.9.7-.8 1.4-1.4 2.3-1.9.9-.4 1.8-.7 2.8-.7 2.1 0 3.6.5 4.6 1.6 1 1.1 1.4 2.6 1.4 4.6 0 .4 0 .7-.1 1-.1.3-.1.6-.1.8h-10.6c-.2.4-.2.8-.2 1.2zm8.5-4.7c-.1-.5-.3-.9-.5-1.3-.3-.4-.6-.7-1.1-.9-.4-.2-1-.3-1.6-.3-.7 0-1.3.1-1.8.3-.5.2-1 .5-1.4.9-.4.4-.7.8-1 1.3-.3.5-.5 1-.7 1.5h8.2c.1-.5 0-1-.1-1.5zm12.5-1.9c-.6-.4-1.3-.6-2.1-.6-.3 0-.7 0-1.1.1-.4.1-.7.2-1 .3-.3.1-.5.3-.7.5-.2.2-.3.5-.3.9 0 .3.1.6.3.8.2.2.5.5.8.7l1.2.6c.4.2.9.4 1.4.5.5.2.9.4 1.4.7.4.2.8.5 1.2.8.3.3.6.7.8 1.1.2.4.3.9.3 1.4 0 .8-.2 1.5-.5 2-.3.6-.8 1-1.3 1.4-.5.3-1.2.6-1.8.8-.7.2-1.4.2-2.1.2-.8 0-1.6-.1-2.3-.2-.7-.2-1.3-.4-1.8-.8s-.9-.9-1.2-1.5c-.3-.6-.4-1.4-.4-2.3h2.3c0 .5 0 .9.2 1.3s.5.6.8.8c.3.2.7.4 1.2.5.4.1.9.1 1.4.1.4 0 .8 0 1.1-.1.4-.1.7-.2 1-.4.3-.2.6-.4.8-.7.2-.3.3-.6.3-1 0-.3-.1-.6-.3-.9-.2-.2-.5-.5-.8-.7-.3-.2-.7-.4-1.2-.6-.4-.2-.9-.4-1.4-.6-.5-.2-.9-.4-1.4-.6-.4-.2-.8-.5-1.2-.8-.4-.3-.6-.7-.8-1.1-.2-.4-.3-.9-.3-1.4 0-.7.2-1.2.5-1.8.3-.5.7-.9 1.2-1.3.5-.3 1.1-.6 1.7-.8.6-.2 1.3-.3 1.9-.3.7 0 1.3.1 1.9.2.6.2 1.2.4 1.7.8s.9.8 1.2 1.4c.3.6.5 1.3.5 2.1h-2.3c0-.5-.2-1.1-.8-1.5zm6.9 6.6c0 .5.1 1 .3 1.5.2.4.5.8.8 1.1.3.3.7.5 1.2.7.4.2.9.2 1.4.2 1 0 1.9-.2 2.6-.7.7-.5 1.2-1.1 1.5-2h2.3c-.2.8-.5 1.5-.9 2.1-.4.6-.9 1.1-1.4 1.5-.6.4-1.2.7-1.9.9-.7.2-1.4.3-2.2.3-1.2 0-2.1-.2-2.9-.5-.8-.4-1.4-.8-1.8-1.4-.5-.6-.8-1.2-1-1.8-.2-.7-.3-1.3-.3-1.9 0-1.3.2-2.6.6-3.7.4-1.1.9-2.1 1.6-2.9.7-.8 1.4-1.4 2.3-1.9.9-.4 1.8-.7 2.8-.7 2.1 0 3.6.5 4.6 1.6 1 1.1 1.4 2.6 1.4 4.6 0 .4 0 .7-.1 1-.1.3-.1.6-.1.8h-10.6c-.2.4-.2.8-.2 1.2zm8.5-4.7c-.1-.5-.3-.9-.5-1.3-.3-.4-.6-.7-1.1-.9-.4-.2-1-.3-1.6-.3-.7 0-1.3.1-1.8.3-.5.2-1 .5-1.4.9-.4.4-.7.8-1 1.3-.3.5-.5 1-.7 1.5h8.2c0-.5 0-1-.1-1.5zm5.7-2c.4-.6.8-1.1 1.4-1.4.5-.4 1.2-.7 1.9-.8.7-.2 1.4-.3 2.2-.3.7 0 1.3.1 2 .2.6.1 1.2.3 1.6.6.5.3.9.6 1.1 1.1.3.5.4 1.1.4 1.8 0 .4-.1.8-.2 1.3s-.2.9-.3 1.3l-.9 3.9c-.1.3-.1.6-.2 1s-.2.7-.2 1c0 .3.1.6.2.7.1.1.3.2.5.2.1 0 .2 0 .4-.1.1 0 .3-.1.4-.1l-.4 1.7c-.2.1-.4.1-.7.2-.3.1-.5.1-.7.1-.6 0-1.1-.2-1.5-.5-.3-.3-.5-.8-.4-1.4l-.1-.1c-.5.7-1.1 1.2-1.8 1.5-.7.3-1.7.5-2.9.5-.6 0-1.2-.1-1.7-.2s-1-.4-1.4-.7c-.4-.3-.7-.7-.9-1.2-.2-.5-.3-1.1-.3-1.8 0-1 .2-1.9.7-2.4.4-.6 1-1 1.7-1.3.7-.3 1.5-.5 2.3-.6.8-.1 1.7-.2 2.4-.3.6-.1 1.2-.1 1.6-.2.4-.1.8-.2 1.1-.3.3-.1.5-.4.6-.6.1-.3.2-.6.2-1.1 0-.4-.1-.7-.3-.9-.2-.2-.4-.4-.7-.6l-.9-.3c-.3-.1-.7-.1-1-.1-.4 0-.9 0-1.3.1s-.8.2-1.2.5c-.3.2-.6.5-.9.8-.2.3-.4.7-.5 1.2h-2c.1-1.2.3-1.9.7-2.4zm.7 9.7c.5.3 1.1.5 1.8.5 1.8 0 3.2-.6 4-1.9.4-.5.6-1.1.8-1.7.1-.6.3-1.3.5-1.9h-.1c-.3.2-.7.4-1.2.5-.5.1-1 .2-1.6.2-.6.1-1.1.1-1.7.2-.6.1-1.1.2-1.5.4-.5.2-.8.4-1.1.8-.3.3-.4.8-.5 1.4-.2.6.1 1.1.6 1.5zm16.3-12l-.7 3h.1c.5-1 1.2-1.8 2.1-2.4.8-.6 1.9-1 3-1h.8l-.5 2.5h-1.4c-.2 0-.4.1-.7.1-.6.2-1.2.4-1.7.8s-.9.9-1.3 1.5c-.3.5-.6 1-.7 1.6-.2.6-.3 1.2-.4 1.7l-1.3 6.3h-2.3l2.9-14.1h2.1zm14.2 2.5c-.5-.5-1.3-.7-2.2-.7-.9 0-1.7.2-2.4.6-.7.4-1.3.9-1.7 1.6-.5.6-.8 1.4-1.1 2.1-.2.8-.4 1.6-.4 2.3 0 .5.1 1.1.2 1.6s.3.9.6 1.3.6.7 1.1.9c.4.2 1 .3 1.7.3 1 0 1.9-.3 2.6-.8.7-.5 1.2-1.2 1.6-2.1h2.3c-.4 1.6-1.2 2.8-2.3 3.7-1.1.8-2.5 1.3-4.2 1.3-1.9 0-3.4-.5-4.4-1.6-1-1.1-1.5-2.5-1.5-4.5 0-1.1.2-2.2.5-3.3.3-1 .8-2 1.5-2.8.7-.8 1.5-1.5 2.5-1.9 1-.5 2.1-.7 3.3-.7 1.6 0 2.9.4 3.8 1.2.9.8 1.4 2 1.5 3.7h-2.3c.1-1-.1-1.7-.7-2.2zm10.5-7.8l-1.7 7.5.1.1c.6-.8 1.3-1.4 2.2-1.8.9-.4 1.8-.6 2.8-.6 1.3 0 2.3.3 3 .9.6.6 1 1.5 1 2.8 0 .3 0 .7-.1 1.2s-.2 1-.3 1.6l-1.7 8.1h-2.3l1.8-8.3c0-.1 0-.3.1-.5 0-.2.1-.4.1-.6 0-.2.1-.4.1-.6v-.5c0-.7-.2-1.2-.7-1.5-.5-.3-1.1-.5-1.8-.5-.6 0-1.3.2-1.9.5-.6.3-1.2.7-1.6 1.2-.4.4-.7.8-1 1.3-.2.5-.4 1.1-.6 1.6l-1.6 7.8H326l4.1-19.5h2.3zm31.6 18c-1.4 1.3-3.3 1.9-5.8 1.9-2.7 0-4.7-.7-6.2-2.2-1.4-1.5-2.2-3.6-2.2-6.3 0-1.6.2-3.1.7-4.5.5-1.4 1.2-2.7 2.1-3.8.9-1.1 2-2 3.4-2.6 1.3-.6 2.8-1 4.5-1 1.1 0 2 .1 2.9.4.9.3 1.7.7 2.4 1.3.7.6 1.2 1.3 1.6 2.1.4.8.6 1.8.6 3h-2.6c0-1.5-.5-2.7-1.4-3.4-.9-.8-2.1-1.1-3.5-1.1s-2.6.3-3.6.9c-1 .6-1.9 1.3-2.5 2.2-.7.9-1.2 1.9-1.5 3.1-.3 1.2-.5 2.3-.5 3.5 0 .9.1 1.8.4 2.6.2.8.6 1.5 1.1 2 .5.6 1.1 1 1.8 1.3.7.3 1.6.5 2.6.5 1.6 0 2.9-.4 3.9-1.3 1-.8 1.7-2 2.1-3.6h2.6c-.5 2.1-1.5 3.8-2.9 5zm10.9-18l-1.7 7.5.1.1c.6-.8 1.3-1.4 2.2-1.8.9-.4 1.8-.6 2.8-.6 1.3 0 2.3.3 3 .9.6.6 1 1.5 1 2.8 0 .3 0 .7-.1 1.2s-.2 1-.3 1.6l-1.7 8.1h-2.3l1.8-8.3c0-.1 0-.3.1-.5 0-.2.1-.4.1-.6 0-.2.1-.4.1-.6v-.5c0-.7-.2-1.2-.7-1.5-.5-.3-1.1-.5-1.8-.5-.6 0-1.3.2-1.9.5-.6.3-1.2.7-1.6 1.2-.4.4-.7.8-1 1.3-.2.5-.4 1.1-.6 1.6l-1.6 7.8h-2.3l4.1-19.5h2.3zm11.1 7.6c.4-.6.8-1.1 1.4-1.4.5-.4 1.2-.7 1.9-.8.7-.2 1.4-.3 2.2-.3.7 0 1.3.1 2 .2.6.1 1.2.3 1.6.6.5.3.9.6 1.1 1.1.3.5.4 1.1.4 1.8 0 .4 0 .8-.2 1.3-.1.5-.2.9-.3 1.3l-.9 3.9c-.1.3-.1.6-.2 1s-.2.7-.2 1c0 .3.1.6.2.7.1.1.3.2.5.2.1 0 .2 0 .4-.1.1 0 .3-.1.4-.1l-.4 1.7c-.2.1-.4.1-.7.2-.3.1-.5.1-.7.1-.6 0-1.1-.2-1.5-.5-.3-.3-.5-.8-.4-1.4l-.1-.1c-.5.7-1.1 1.2-1.8 1.5-.7.3-1.7.5-2.9.5-.6 0-1.2-.1-1.7-.2s-1-.4-1.4-.7c-.4-.3-.7-.7-.9-1.2-.2-.5-.3-1.1-.3-1.8 0-1 .2-1.9.7-2.4.4-.6 1-1 1.7-1.3.7-.3 1.5-.5 2.3-.6.8-.1 1.7-.2 2.4-.3.6-.1 1.2-.1 1.6-.2.4-.1.8-.2 1.1-.3.3-.1.5-.4.6-.6.1-.3.2-.6.2-1.1 0-.4-.1-.7-.3-.9-.2-.2-.4-.4-.7-.6l-.9-.3c-.3-.1-.7-.1-1-.1-.4 0-.9 0-1.3.1s-.8.2-1.2.5c-.3.2-.6.5-.9.8-.2.3-.4.7-.5 1.2H385c.4-1.2.6-1.9 1-2.4zm.6 9.7c.5.3 1.1.5 1.8.5 1.8 0 3.2-.6 4-1.9.4-.5.6-1.1.8-1.7.1-.6.3-1.3.5-1.9h-.1c-.3.2-.7.4-1.2.5-.5.1-1 .2-1.6.2-.6.1-1.1.1-1.7.2-.6.1-1.1.2-1.5.4-.5.2-.8.4-1.1.8-.3.3-.4.8-.5 1.4-.2.6.1 1.1.6 1.5zm16.5-12l-.4 2.1h.1c.6-.8 1.3-1.4 2.2-1.8.9-.4 1.8-.6 2.8-.6 1.3 0 2.3.3 3 .9.6.6 1 1.5 1 2.8 0 .3 0 .7-.1 1.2s-.2 1-.3 1.6l-1.7 8.1h-2.3L409 86c0-.1 0-.3.1-.5 0-.2.1-.4.1-.6 0-.2.1-.4.1-.6v-.5c0-.7-.2-1.2-.7-1.5-.5-.3-1.1-.5-1.8-.5-.6 0-1.3.2-1.9.5-.6.3-1.2.7-1.6 1.2-.4.4-.7.8-1 1.3-.2.5-.4 1.1-.6 1.6l-1.6 7.8h-2.3l3-14.1h2.3zm22.1 14.2c-.2.7-.4 1.2-.6 1.7-.6 1.4-1.4 2.4-2.5 3-1.1.6-2.4.9-3.9.9-.7 0-1.4-.1-2.1-.2-.7-.2-1.3-.4-1.8-.8-.5-.3-.9-.8-1.2-1.4-.3-.6-.5-1.2-.5-2h2.3c0 .5.2.9.4 1.2.2.3.5.5.8.7.3.2.7.3 1.1.4.4.1.8.1 1.3.1.9 0 1.6-.2 2.2-.5.6-.3 1-.8 1.4-1.3.4-.5.7-1.1.9-1.8l.6-2.1-.1-.1c-.5.8-1.1 1.3-1.9 1.6-.8.3-1.6.5-2.5.5-.9 0-1.6-.1-2.3-.4-.7-.3-1.2-.7-1.7-1.2-.4-.5-.8-1.1-1-1.8-.2-.7-.3-1.5-.3-2.4 0-1 .2-2.1.5-3.1s.8-2 1.4-2.8c.6-.8 1.4-1.5 2.3-2 .9-.5 1.9-.8 3.1-.8.5 0 1 .1 1.5.2s.9.3 1.3.6c.4.2.8.5 1 .9.3.4.5.8.6 1.2v.1h.1l.4-2.6h2.2l-2.5 12.1c-.1.8-.3 1.5-.5 2.1zm-8.9-4.3c.1.5.4.9.6 1.2.3.3.6.6 1.1.8.4.2.9.3 1.5.3.9 0 1.6-.2 2.3-.7.6-.4 1.2-1 1.6-1.7.4-.7.7-1.4.9-2.2.2-.8.3-1.5.3-2.3 0-1.1-.3-2-.9-2.7-.6-.7-1.5-1-2.7-1-.8 0-1.5.2-2.2.7-.6.5-1.1 1-1.6 1.7-.4.7-.7 1.4-1 2.2-.2.8-.3 1.5-.3 2.1.2.7.3 1.1.4 1.6zm15.2-.9c0 .5.1 1 .3 1.5.2.4.5.8.8 1.1.3.3.7.5 1.2.7.4.2.9.2 1.4.2 1 0 1.9-.2 2.6-.7.7-.5 1.2-1.1 1.5-2h2.3c-.2.8-.5 1.5-.9 2.1-.4.6-.9 1.1-1.4 1.5-.6.4-1.2.7-1.9.9-.7.2-1.4.3-2.2.3-1.2 0-2.1-.2-2.9-.5-.8-.4-1.4-.8-1.8-1.4-.5-.6-.8-1.2-1-1.8-.2-.7-.3-1.3-.3-1.9 0-1.3.2-2.6.6-3.7.4-1.1.9-2.1 1.6-2.9.7-.8 1.4-1.4 2.3-1.9.9-.4 1.8-.7 2.8-.7 2.1 0 3.6.5 4.6 1.6 1 1.1 1.4 2.6 1.4 4.6 0 .4 0 .7-.1 1-.1.3-.1.6-.1.8h-10.6c-.2.4-.2.8-.2 1.2zm8.5-4.7c-.1-.5-.3-.9-.5-1.3-.3-.4-.6-.7-1.1-.9-.4-.2-1-.3-1.6-.3-.7 0-1.3.1-1.8.3-.5.2-1 .5-1.4.9-.4.4-.7.8-1 1.3-.3.5-.5 1-.7 1.5h8.2c0-.5 0-1-.1-1.5zm12.5-1.9c-.6-.4-1.3-.6-2.1-.6-.3 0-.7 0-1.1.1-.4.1-.7.2-1 .3-.3.1-.5.3-.7.5-.2.2-.3.5-.3.9 0 .3.1.6.3.8.2.2.5.5.8.7l1.2.6c.4.2.9.4 1.4.5.5.2.9.4 1.4.7.4.2.8.5 1.2.8.3.3.6.7.8 1.1.2.4.3.9.3 1.4 0 .8-.2 1.5-.5 2-.3.6-.8 1-1.3 1.4-.5.3-1.2.6-1.8.8-.7.2-1.4.2-2.1.2-.8 0-1.6-.1-2.3-.2-.7-.2-1.3-.4-1.8-.8s-.9-.9-1.2-1.5c-.3-.6-.4-1.4-.4-2.3h2.3c0 .5 0 .9.2 1.3s.5.6.8.8c.3.2.7.4 1.2.5.4.1.9.1 1.4.1.4 0 .8 0 1.1-.1.4-.1.7-.2 1-.4.3-.2.6-.4.8-.7.2-.3.3-.6.3-1 0-.3-.1-.6-.3-.9-.2-.2-.5-.5-.8-.7-.3-.2-.7-.4-1.2-.6-.4-.2-.9-.4-1.4-.6-.5-.2-.9-.4-1.4-.6-.4-.2-.8-.5-1.2-.8-.4-.3-.6-.7-.8-1.1-.2-.4-.3-.9-.3-1.4 0-.7.2-1.2.5-1.8.3-.5.7-.9 1.2-1.3.5-.3 1.1-.6 1.7-.8.6-.2 1.3-.3 1.9-.3.7 0 1.3.1 1.9.2.6.2 1.2.4 1.7.8s.9.8 1.2 1.4c.3.6.5 1.3.5 2.1h-2.3c0-.5-.3-1.1-.8-1.5zm18.7-7.7l-3.6 17.3h10.3l-.5 2.2h-12.9l4.1-19.5h2.6zm13.5 5.3l-3 14.1h-2.3l2.9-14.1h2.4zm-1.8-2.5l.6-2.8h2.4l-.6 2.8h-2.4zm5.9 16.7l-2-14.1h2.5l1.2 11.8h.1l6.1-11.8h2.5l-7.8 14.1h-2.6zm12.6-5.2c0 .5.1 1 .3 1.5.2.4.5.8.8 1.1.3.3.7.5 1.2.7.4.2.9.2 1.4.2 1 0 1.9-.2 2.6-.7.7-.5 1.2-1.1 1.5-2h2.3c-.2.8-.5 1.5-.9 2.1-.4.6-.9 1.1-1.4 1.5-.6.4-1.2.7-1.9.9-.7.2-1.4.3-2.2.3-1.2 0-2.1-.2-2.9-.5-.8-.4-1.4-.8-1.8-1.4-.5-.6-.8-1.2-1-1.8-.2-.7-.3-1.3-.3-1.9 0-1.3.2-2.6.6-3.7.4-1.1.9-2.1 1.6-2.9.7-.8 1.4-1.4 2.3-1.9.9-.4 1.8-.7 2.8-.7 2.1 0 3.6.5 4.6 1.6 1 1.1 1.4 2.6 1.4 4.6 0 .4 0 .7-.1 1-.1.3-.1.6-.1.8h-10.6c-.2.4-.2.8-.2 1.2zm8.5-4.7c-.1-.5-.3-.9-.5-1.3-.3-.4-.6-.7-1.1-.9-.4-.2-1-.3-1.6-.3-.7 0-1.3.1-1.8.3-.5.2-1 .5-1.4.9-.4.4-.7.8-1 1.3-.3.5-.5 1-.7 1.5h8.2c0-.5 0-1-.1-1.5zm12.4-1.9c-.6-.4-1.3-.6-2.1-.6-.3 0-.7 0-1.1.1-.4.1-.7.2-1 .3-.3.1-.5.3-.7.5-.2.2-.3.5-.3.9 0 .3.1.6.3.8.2.2.5.5.8.7l1.2.6c.4.2.9.4 1.4.5.5.2.9.4 1.4.7.4.2.8.5 1.2.8.3.3.6.7.8 1.1.2.4.3.9.3 1.4 0 .8-.2 1.5-.5 2-.3.6-.8 1-1.3 1.4-.5.3-1.2.6-1.8.8-.7.2-1.4.2-2.1.2-.8 0-1.6-.1-2.3-.2-.7-.2-1.3-.4-1.8-.8s-.9-.9-1.2-1.5c-.3-.6-.4-1.4-.4-2.3h2.3c0 .5 0 .9.2 1.3s.5.6.8.8c.3.2.7.4 1.2.5.4.1.9.1 1.4.1.4 0 .8 0 1.1-.1.4-.1.7-.2 1-.4.3-.2.6-.4.8-.7.2-.3.3-.6.3-1 0-.3-.1-.6-.3-.9-.2-.2-.5-.5-.8-.7-.3-.2-.7-.4-1.2-.6-.4-.2-.9-.4-1.4-.6-.5-.2-.9-.4-1.4-.6-.4-.2-.8-.5-1.2-.8-.4-.3-.6-.7-.8-1.1-.2-.4-.3-.9-.3-1.4 0-.7.2-1.2.5-1.8.3-.5.7-.9 1.2-1.3.5-.3 1.1-.6 1.7-.8.6-.2 1.3-.3 1.9-.3.7 0 1.3.1 1.9.2.6.2 1.2.4 1.7.8s.9.8 1.2 1.4c.3.6.5 1.3.5 2.1h-2.3c.1-.5-.2-1.1-.8-1.5z" fill="#616265"/></svg>
