<svg
	xmlns="http://www.w3.org/2000/svg">
	<symbol id="close" viewBox="0 0 32 32">
		<path d="M13.17 16l-7.78 7.78c-.78.78-.78 2.05 0 2.83.78.78 2.05.78 2.83 0L16 18.83l7.78 7.78c.78.78 2.05.78 2.83 0 .78-.78.78-2.05 0-2.83L18.83 16l7.78-7.78c.78-.78.78-2.05 0-2.83s-2.05-.78-2.83 0L16 13.17 8.22 5.39c-.78-.78-2.05-.78-2.83 0s-.78 2.05 0 2.83L13.17 16z"/>
	</symbol>
	<symbol id="comment" viewBox="0 0 36 32">
		<path d="M1.28 13.1C1.28 6.42 8.76 1 18 1c9.24 0 16.72 5.42 16.72 12.1 0 5.73-5.5 10.52-12.89 11.78L14.54 31c.08-.01.48-2.73.93-5.95-8.04-.88-14.19-5.9-14.19-11.95z"/>
	</symbol>
	<symbol id="email" viewBox="0 0 40 32">
		<path d="M2.87 27h34.26L24.86 16.65 20 20.75l-4.86-4.09zm22.76-11L38 26.42V5.58zM2 5.58v20.85L14.37 16zM2.87 5L20 19.44 37.13 5z" stroke="none"/>
		<path d="M38.5 27.5h-37v-23h37zm-37-23L20 20.09 38.5 4.5M15.14 16L1.5 27.5m37 0L24.85 16" fill="none"/>
	</symbol>
	<symbol id="facebook" viewBox="0 0 18 32">
		<path d="M16.79 5.98h-2.82c-2.21 0-2.64 1.05-2.64 2.6v3.41h5.28l-.69 5.33h-4.59V31H5.82V17.32H1.21v-5.33h4.61V8.05C5.82 3.49 8.6 1 12.67 1c1.95 0 3.63.15 4.11.21z"/>
	</symbol>
	<symbol id="instagram" viewBox="0 0 32 32">
		<path d="M16 3.7c4 0 4.5 0 6.1.1 1.5.1 2.3.3 2.8.5.7.3 1.2.6 1.7 1.1.5.5.9 1 1.1 1.7.2.5.5 1.3.5 2.8.1 1.6.1 2.1.1 6.1 0 4 0 4.5-.1 6.1-.1 1.5-.3 2.3-.5 2.8-.3.7-.6 1.2-1.1 1.7-.5.5-1 .9-1.7 1.1-.5.2-1.3.5-2.8.5-1.6.1-2.1.1-6.1.1s-4.5 0-6.1-.1c-1.5-.1-2.3-.3-2.8-.5-.7-.3-1.2-.6-1.7-1.1-.5-.5-.9-1-1.1-1.7-.2-.5-.5-1.3-.5-2.8-.1-1.6-.1-2.1-.1-6.1 0-4 0-4.5.1-6.1.1-1.5.3-2.3.5-2.8.3-.7.6-1.2 1.1-1.7.5-.5 1-.9 1.7-1.1.5-.2 1.3-.5 2.8-.5 1.6-.1 2.1-.1 6.1-.1M16 1c-4.1 0-4.6 0-6.2.1-1.6.1-2.7.3-3.6.7-1 .4-1.8.9-2.7 1.7-.8.9-1.3 1.7-1.7 2.7-.4 1-.6 2-.7 3.6C1 11.4 1 11.9 1 16s0 4.6.1 6.2c.1 1.6.3 2.7.7 3.6.4 1 .9 1.8 1.7 2.7.8.8 1.7 1.3 2.7 1.7 1 .4 2 .6 3.6.7 1.6.1 2.1.1 6.2.1s4.6 0 6.2-.1c1.6-.1 2.7-.3 3.6-.7 1-.4 1.8-.9 2.7-1.7s1.3-1.7 1.7-2.7c.4-1 .6-2 .7-3.6.1-1.6.1-2.1.1-6.2s0-4.6-.1-6.2c-.1-1.6-.3-2.7-.7-3.6-.4-1-.9-1.8-1.7-2.7-.8-.8-1.7-1.3-2.7-1.7-1-.4-2-.6-3.6-.7C20.6 1 20.1 1 16 1zm0 7.3c-4.3 0-7.7 3.4-7.7 7.7s3.4 7.7 7.7 7.7 7.7-3.4 7.7-7.7-3.4-7.7-7.7-7.7zM16 21c-2.8 0-5-2.2-5-5s2.2-5 5-5 5 2.2 5 5-2.2 5-5 5zm9.8-13c0 1-.8 1.8-1.8 1.8S22.2 9 22.2 8 23 6.2 24 6.2s1.8.8 1.8 1.8z" stroke="none"/>
		<path d="M16 2.3c4.4 0 5 0 6.7.1 1.6.1 2.5.3 3.1.6.8.3 1.3.7 1.9 1.2.6.6.9 1.1 1.2 1.9.2.6.5 1.5.6 3.1.1 1.8.1 2.3.1 6.7s0 5-.1 6.7c-.1 1.6-.3 2.5-.6 3.1-.3.8-.7 1.3-1.2 1.9-.6.6-1.1.9-1.9 1.2-.6.2-1.5.5-3.1.6-1.8.1-2.3.1-6.7.1s-5 0-6.7-.1c-1.6-.1-2.5-.3-3.1-.6-.8-.3-1.3-.7-1.9-1.2-.6-.6-.9-1.1-1.2-1.9-.2-.6-.5-1.5-.6-3.1-.1-1.6-.2-2.2-.2-6.6 0-4.4 0-5 .1-6.7.1-1.7.4-2.5.6-3.1.3-.8.7-1.3 1.2-1.9.6-.6 1.2-1 2-1.3.6-.2 1.5-.5 3.1-.6 1.7 0 2.3-.1 6.7-.1m0 7.3c-3.5 0-6.4 2.8-6.4 6.4s2.8 6.4 6.4 6.4 6.4-2.8 6.4-6.4-2.9-6.4-6.4-6.4zM24.9 8c0-.5-.4-.9-.9-.9s-.9.4-.9.9.4.9.9.9.9-.4.9-.9z" fill="none"/>
	</symbol>
	<symbol id="linkedin" viewBox="0 0 33 32">
		<path d="M8.2 31H1.97V10.96H8.2V31zm.5-26.39C8.7 2.62 7.08 1 5.09 1c-2 0-3.61 1.62-3.61 3.61 0 1.99 1.61 3.61 3.61 3.61 1.99 0 3.61-1.61 3.61-3.61zm22.83 15.4c0-5.4-1.17-9.55-7.47-9.55-3.03 0-5.06 1.66-5.89 3.24h-.09v-2.74h-5.97V31h6.22v-9.91c0-2.61.49-5.15 3.74-5.15 3.2 0 3.24 2.99 3.24 5.31V31h6.23V20.01z"/>
	</symbol>
	<symbol id="nav" viewBox="0 0 32 32">
		<path d="M3 8c-1.1 0-2-.9-2-2s.9-2 2-2h26c1.1 0 2 .9 2 2s-.9 2-2 2H3zm26 10c1.1 0 2-.9 2-2s-.9-2-2-2H3c-1.1 0-2 .9-2 2s.9 2 2 2h26zm0 10c1.1 0 2-.9 2-2s-.9-2-2-2H3c-1.1 0-2 .9-2 2s.9 2 2 2h26z"/>
	</symbol>
	<symbol id="next" viewBox="0 0 60 120">
		<path d="M3 119c-.5 0-1-.2-1.4-.5-.8-.8-.8-2-.1-2.8L54.2 60 1.5 4.4c-.7-.8-.7-2.1.1-2.9.8-.8 2.1-.7 2.8.1l54 57c.7.8.7 2 0 2.8l-54 57c-.3.4-.9.6-1.4.6z"/>
	</symbol>
	<symbol id="pdf" viewBox="0 0 33 32">
		<path d="M31.33 19.48c-.61-.6-1.97-.92-4.04-.95-1.4-.02-3.08.11-4.86.36-.79-.46-1.61-.96-2.25-1.56-1.73-1.61-3.17-3.85-4.07-6.31.06-.23.11-.43.15-.64 0 0 .97-5.53.72-7.39-.04-.26-.06-.33-.13-.53l-.08-.22c-.26-.61-.78-1.26-1.6-1.22L14.7 1h-.01c-.91 0-1.65.46-1.84 1.16-.59 2.17.02 5.43 1.12 9.64l-.28.69c-.79 1.93-1.78 3.86-2.65 5.57l-.11.22c-.92 1.8-1.75 3.32-2.51 4.62l-.78.41c-.06.03-1.39.74-1.71.93-2.66 1.59-4.42 3.39-4.72 4.82-.09.46-.02 1.04.45 1.31l.75.38c.33.17.67.25 1.03.25 1.89 0 4.09-2.36 7.13-7.65 3.5-1.14 7.48-2.09 10.97-2.61 2.66 1.5 5.93 2.54 8 2.54.37 0 .68-.04.94-.1.4-.1.73-.33.93-.64.4-.6.48-1.43.37-2.28-.03-.26-.23-.57-.45-.78zM3.03 29.56c.35-.94 1.71-2.81 3.74-4.47.13-.1.44-.4.73-.67-2.12 3.38-3.54 4.72-4.47 5.14zM15.01 1.98c.61 0 .96 1.54.98 2.97.03 1.44-.31 2.45-.73 3.2-.35-1.11-.51-2.85-.51-3.99 0 0-.02-2.18.26-2.18zm-3.58 19.66c.42-.76.87-1.56 1.32-2.41 1.1-2.08 1.79-3.71 2.31-5.04 1.03 1.87 2.31 3.46 3.82 4.74.19.16.39.32.6.48-3.07.59-5.72 1.33-8.05 2.23zm19.31-.18c-.19.12-.72.18-1.06.18-1.11 0-2.48-.51-4.41-1.33.74-.05 1.42-.08 2.02-.08 1.11 0 1.44 0 2.53.27s1.11.85.92.96z"/>
	</symbol>
	<symbol id="podcast" viewBox="0 0 37 32">
		<path d="M11.43 23.86v5.8c0 .37-.08.72-.34 1-.41.44-1.77.44-2.18 0-.26-.28-.34-.63-.34-1V19.3c0-.44-.01-.87 0-1.31.03-.84.43-1.24 1.26-1.25h.38c.79 0 1.21.43 1.21 1.25v5.71c.01.06.01.11.01.16zM18.5 1C10.36.85 4.17 6.19 2.59 13.32c-.28 1.23-.39 2.48-.39 3.74v3.61c0 .16-.06.33-.11.49l-.54 1.89c-.01.05-.04.1-.06.14v1.34c.02.06.05.12.06.18.36 2.6 2.23 4.72 4.77 5.35.49.12 1.01.16 1.52.23V17.46c-.98.01-1.89.23-2.78.65-.25-5.05 1.42-9.22 5.67-11.99 2.3-1.5 5.03-2.24 7.77-2.24 2.74 0 5.47.75 7.77 2.24 4.25 2.77 5.91 6.94 5.67 11.99-.89-.42-1.8-.64-2.78-.65v12.83c.51-.08 1.03-.11 1.52-.23 2.53-.63 4.41-2.74 4.77-5.35.01-.06.04-.12.06-.18v-1.34c-.02-.05-.04-.09-.06-.14l-.54-1.89c-.04-.16-.11-.32-.11-.49-.01-1.2-.01-2.4 0-3.61 0-1.26-.11-2.5-.38-3.73C32.83 6.19 26.64.85 18.5 1zm7.07 22.86v5.8c0 .37.08.72.34 1 .41.44 1.77.44 2.18 0 .26-.28.34-.63.34-1V19.3c0-.44.01-.87 0-1.31-.01-.84-.42-1.25-1.25-1.25h-.38c-.79 0-1.21.43-1.21 1.25v5.71c-.02.06-.02.11-.02.16z"/>
	</symbol>
	<symbol id="prev" viewBox="0 0 60 120">
		<path d="M57 119c.49 0 .99-.18 1.38-.55.8-.76.84-2.03.08-2.83L5.76 60l52.7-55.62c.76-.8.73-2.07-.08-2.83-.8-.76-2.07-.73-2.83.08l-54 57c-.73.77-.73 1.98 0 2.75l54 57c.39.41.92.62 1.45.62z"/>
	</symbol>
	<symbol id="print" viewBox="0 0 38 32">
		<path d="M29 8H9V1h20v7zm8 1v16h-7v-7H8v7H1V9h36zm-3 2h-1v2h1v-2zm-5 8v12H9V19h20zm-7 7H12v1h10v-1zm4-4H12v1h14v-1z" stroke="none"/>
		<path d="M9.5 8.5v-7h19v7M8.5 25h-7V8.5h35V25h-7m4 -14v2m-4 5.5v12h-21v-12h21zm-7.5 8H12m0-4h14" fill="none"/>
	</symbol>
	<symbol id="rss" viewBox="0 0 32 32">
		<path d="M9.02 26.98c0 2.2-1.78 3.98-3.98 3.98s-3.98-1.78-3.98-3.98S2.84 23 5.04 23s3.98 1.78 3.98 3.98zM1.06 16.94c3.73 0 7.24 1.46 9.88 4.11 2.64 2.65 4.09 6.18 4.09 9.94h5.75c0-10.92-8.85-19.8-19.72-19.8v5.75zm.01-10.19c13.3 0 24.12 10.88 24.12 24.25h5.75c0-16.54-13.4-30-29.87-30v5.75z"/>
	</symbol>
	<symbol id="search" viewBox="0 0 29 32">
		<path d="M27.15 28.42l-4.99-6.51c2.28-2.21 3.71-5.31 3.71-8.73C25.86 6.46 20.4 1 13.69 1 6.97 1 1.51 6.46 1.51 13.18c0 6.71 5.46 12.18 12.17 12.18 2.14 0 4.15-.56 5.9-1.54l5.03 6.56c.32.41.79.62 1.27.62.34 0 .69-.11.98-.33.7-.54.83-1.55.29-2.25zM4.72 13.18c0-4.95 4.02-8.98 8.97-8.98 4.95 0 8.98 4.03 8.98 8.98s-4.03 8.98-8.98 8.98-8.97-4.03-8.97-8.98z"/>
	</symbol>
	<symbol id="twitter" viewBox="0 0 39 32">
		<path d="M13.48 30.04c12.99 0 20.1-10.78 20.1-20.1 0-.3 0-.61-.01-.91 1.38-.99 2.58-2.25 3.53-3.67-1.27.56-2.63.94-4.06 1.12 1.46-.87 2.58-2.26 3.11-3.91-1.36.81-2.88 1.39-4.49 1.71-1.3-1.38-3.13-2.23-5.15-2.23-3.9 0-7.07 3.17-7.07 7.07 0 .55.07 1.09.18 1.61-5.88-.29-11.09-3.12-14.58-7.39-.6 1.05-.95 2.26-.95 3.55 0 2.45 1.25 4.62 3.14 5.88-1.16-.04-2.25-.36-3.2-.88v.1c0 3.42 2.44 6.28 5.66 6.93-.59.17-1.21.25-1.86.25-.45 0-.9-.04-1.32-.12.9 2.81 3.51 4.85 6.6 4.91-2.43 1.9-5.47 3.03-8.78 3.03-.56 0-1.13-.03-1.68-.1 3.12 1.98 6.85 3.15 10.83 3.15"/>
	</symbol>
	<symbol id="youtube" viewBox="0 0 35 32">
		<path d="M33.52 9.46s-.32-2.25-1.3-3.25c-1.24-1.3-2.64-1.31-3.28-1.39-4.57-.32-11.43-.32-11.43-.32h-.01s-6.86 0-11.44.33c-.65.08-2.04.08-3.28 1.39-.98.99-1.3 3.25-1.3 3.25s-.33 2.65-.33 5.29v2.48c0 2.65.33 5.29.33 5.29s.32 2.25 1.3 3.25c1.24 1.3 2.88 1.26 3.61 1.4 2.61.24 11.11.32 11.11.32s6.87-.01 11.45-.34c.64-.08 2.03-.08 3.28-1.39.98-.99 1.3-3.25 1.3-3.25s.33-2.65.33-5.29v-2.48c-.01-2.64-.34-5.29-.34-5.29zm-19.4 10.78v-9.19l8.84 4.61-8.84 4.58z"/>
	</symbol>
	<symbol id="nih" viewBox="0 0 100 100">
		<path d="M69.7 36v28h-4.9V51.4H52V64h-4.9V36H52v11.1h12.8V36h4.9zM42.1 64h-4.9V36h4.9v28zm-9.7 0h-5.2L14.6 43.4h-.2V64H9.7V36h5.2l12.8 20.8V36h4.7v28zM87 50L69.7 18.6h-64c-3.1 0-5.7 2.6-5.7 5.7v51.1c0 3.1 2.6 5.7 5.7 5.7h63.8L87 50zM73.8 81.4L91.2 50 74 18.6h4.3c2.4 0 5.2 1.7 6.4 3.8L100 50 84.6 77.6c-1.2 2.1-4 3.8-6.4 3.8h-4.4z"/>
	</symbol>
	<symbol id="hhs" viewBox="0 0 100 100">
		<path d="M93.21 19.01v.01l-.01.03-.03.04-.03.05-.04.08-.05.08-.07.11-.07.11-.08.14-.1.14-.11.15-.11.18-.12.16-.14.19-.14.19-.15.2-.16.22-.18.22-.18.22-.19.23-.2.23-.2.24-.22.24-.23.26-.24.24-.24.26-.26.26-.27.26-.27.26-.29.26-.3.24-.31.26C85.83 26.72 58.6 43.44 57.26 44.5c-1.35 1.05-3.8 3.86-5.8 12.16-1.62 6.69-2.67 4.19-8.01 3.99-3.13-.12-11.81-2.41-11.14 4.3 0 0 1.07-1.5 12.92.1 4.67.64 8.48-.88 9.58-4.39 1.1-3.56 2.71-9.62 5.12-12.8 1.12-1.47 22.94-14.88 28.95-18.46 2.19-1.31 9.24-5.56 4.33-10.39zM24.75 69.45l.03-.01.03-.01.03-.03.05-.03.05-.04.08-.04.08-.03.1-.04.11-.05.12-.04.14-.04.14-.03.16-.04.18-.03.18-.03.2-.03.22-.01.23-.01h.23l.26.01.27.01.29.03.15.03.16.03.15.01.16.04.16.03.16.03.18.04.18.05.18.04.19.05.18.05.2.05.19.07.2.07.2.07.2.08.22.07.22.1c4.67 1.89 16.99 7.46 20.26 9.85 2 1.47 7.58 3.99 6.01 6.72-1.56 2.72-9.13 3.99-7.58 9.85 1.56 5.88 9.81 3.36 10.92 1.89 1.1-1.47-3.67.86-5.35-3.35-1.33-3.36.99-5.59 4.23-7.77 1.55-1.05 3.66-1.89 3.33-4.61-.22-1.89-3.55-3.36-6.9-5.24-3.35-1.89-16.26-7.97-21.39-10.29-5.1-2.28-10.66-1.45-9.99 2.53zM98.23 26.11l-.11.22-.12.21-.12.23-.12.24-.14.26-.07.12-.08.14-.08.14-.08.14-.1.14-.1.14-.1.15-.11.14-.12.15-.11.15-.14.14-.14.16-.15.15-.15.15-.16.15-.16.16-.19.15-.19.16-.2.16-.2.16-.23.15-.23.16C89.66 33.8 70.84 45.47 66.5 48.07c-2.45 1.46-4.41 4.2-5.01 5.44-.67 1.37-1.66 4.79-2.11 10.65-.08 1.13-3.05 2.99-2.68 3.82.35.8 2.61.41 2.53 1.03-.08.54-.75 1.37-.75 1.9 0 .63 1.33.05 1.01.73-.56 1.12.33 1.36.65 2.2.34.83-.11 1.78.19 2.49.54 1.22 2.48 1.46 5.56 1.39 3.1-.05 4.5 2.08 3.82 3.99-.88 2.52-2.95 2.48-6.16 4.64-3.22 2.15-3.36 4.88-1.48 7.21 1.43 1.77 6.8 2.63 10.18-.8.69-.78-1.52.27-4.75-1.41 0 0-2.1-1.51-.98-3.54 1.1-2.04 2.9-2.93 4.88-4.08 1.97-1.17 4.57-1.81 4.45-4.31-.12-2.49-2.72-2.84-3.77-2.91-1.06-.05-2.69.04-4.15-.03-2.2-.11-2.87-1.16-3.01-5.36-.04-1.35-1.93-.63-.88-2.41.56-.93-1.05-.56-2.14-1.02-.93-.42 1.07-2.37 2.46-4.22.44-.59-.24-1.33 0-4.1.23-2.41 1.35-5.55 4.57-7.75 1.58-1.07 8.46-5.36 10.46-6.5 2.8-1.62 16.37-10.39 18.69-12.15 4.42-3.31-.28-7.15.15-6.86zM94.68 39.88l-.01.01-.01.01-.01.01-.03.01-.03.03-.03.03-.04.03-.08.07-.1.1-.12.1-.12.11-.15.12-.15.12-.18.15-.18.15-.19.15-.2.16-.2.18-.22.18-.23.18-.23.19-.24.19-.23.19-.5.38-.52.38-.5.38-.52.35-.24.18-.26.16-.24.16-.23.16c-2.68 1.67-14.71 8.07-17.37 10.27-2.68 2.2-2.57 4.08-2.57 4.08l-.44 5.46s-1.67 1.69-1.89 2.31c-.22.63 1.12.73 2.11 1.25 1.01.53-.19 1.01.22 1.48.79.88 1.4.16.87 1.67-.08.23.67.94.58 1.33-.14.63-.48 1.05.11 1.61.67.63 2.82 1.69 7.74.68 5.35-1.1 8.86 3.06 11.52 3.77.91.23 3.93 1.18 8.69-2.52 2.05-1.59-1.27-.15-6.03-2.15-5.07-2.12-6.6-2.26-10.01-1.62-2.93.54-5.09 1.02-6.23.68-.98-.3-.16-1.76-.9-2-1.47-.49-.46-1.2-1.33-1.67-.88-.49-.37-.68-.39-1.66-.01-.68-.76-.49-1.84-1.09-.83-.48 1.14-1.35 1.43-2.04.33-.86-.08-2.05.14-3.81.39-3.09 5.01-5.25 7.46-6.61 2.68-1.46 10.33-6.12 12.14-7.33 4.19-2.82 1.98-6.71 1.98-6.71zM48.36 92.69l-.01.14-.18-.03c-.2-.03-.37.03-.46.14-.05.07-.11.23-.15.49l-.39 2.98c-.04.29-.03.48.03.54.08.12.22.18.39.2l.18.01-.01.14-1.99-.23c-.73-.1-1.28-.24-1.63-.44-.35-.2-.63-.5-.82-.9-.18-.39-.24-.82-.18-1.31.08-.64.37-1.14.83-1.52.53-.42 1.27-.58 2.22-.48l2.17.27zm-1.42.18l-.05-.01-.05-.03-.05-.01-.05-.01-.04-.01-.05-.01-.05-.01-.04-.01h-.05l-.04-.01-.04-.01h-.04l-.09-.05h-.04l-.04-.01h-.04c-.54-.07-1.03.05-1.46.38-.41.33-.67.8-.75 1.44-.08.64.03 1.16.35 1.56.31.41.76.65 1.35.72.2.03.46.01.75-.01l.52-3.91zm-6.38 3.11L41 94.2l-1.05-.24c-.27-.05-.46-.07-.59-.01-.14.08-.26.24-.34.49l-.12-.03.39-1.56.14.03c-.03.23-.03.38-.01.45.03.08.08.16.16.23s.23.12.42.16l1.06.23.38-1.47c.04-.22.07-.33.05-.38 0-.04-.03-.08-.07-.12-.04-.04-.12-.07-.26-.1l-.8-.19c-.27-.05-.48-.08-.6-.08-.14.01-.27.05-.41.14-.18.11-.38.27-.6.52l-.16-.04.71-1.03 3.7.82-.03.12-.17-.04c-.11-.03-.22-.03-.34.01-.08.01-.15.04-.19.12-.04.05-.1.2-.15.41l-.75 2.94c-.08.29-.08.48-.04.56.05.1.19.18.38.22l.16.04-.03.12-3.69-.83.19-1.01.15.03c-.01.26 0 .44.04.53.03.1.11.19.22.27.08.04.24.1.48.16l1.33.31zm-4.06-3.36l.48-1.28c.1-.29.12-.46.1-.54-.05-.12-.18-.22-.34-.27l-.18-.05.04-.12 1.98.64-.05.11-.18-.05c-.19-.06-.35-.04-.47.04-.07.05-.15.2-.24.45L36.6 94.4c-.11.26-.14.45-.1.53.05.12.16.22.34.27l.18.05-.04.12-1.7-.56c-.42-.14-.73-.29-.94-.44-.2-.16-.37-.37-.46-.61-.08-.24-.08-.49.01-.76.12-.35.37-.61.69-.76.33-.14.72-.14 1.17.01.12.04.23.1.37.14.12.08.25.15.38.23zm-.07.18l-.01-.01h-.03l-.01-.01-.03-.01-.01-.01h-.03l-.01-.01-.03-.01h-.01l-.01-.01-.03-.01h-.02l-.01-.01-.01-.01h-.03l-.01-.01c-.08-.04-.16-.07-.23-.1-.23-.07-.46-.05-.71.07-.23.12-.39.31-.5.59-.07.19-.1.38-.07.57.03.19.1.35.22.48.11.14.27.23.46.29.11.04.26.07.46.1l.66-1.89zm-4.85-2.71l1.76.73.61-.52c.15-.14.24-.24.29-.33.03-.07.03-.14-.01-.22-.04-.07-.16-.16-.38-.27l.05-.11 1.41.6-.05.12c-.2-.05-.34-.07-.42-.04-.15.05-.38.2-.67.46l-3.25 2.8-.11-.04.12-4.19c0-.34-.03-.57-.1-.69-.05-.14-.18-.24-.35-.33l.05-.12 1.77.76-.05.11c-.18-.07-.31-.1-.39-.07-.1.01-.15.07-.19.14-.04.08-.05.24-.07.49l-.02.72zm-.02.27l-.05 2.04 1.61-1.39-1.56-.65zm-5.45-4.85l1.14.63.27 2.67c.1.05.19.11.24.14.03.03.05.04.1.05.03.01.05.04.08.05l.73-1.17c.15-.24.23-.42.2-.52-.03-.12-.11-.23-.27-.31l-.16-.1.07-.11 1.81 1.01-.07.11-.16-.1c-.16-.1-.33-.11-.48-.04-.08.04-.19.16-.34.39l-1.62 2.58c-.16.24-.22.42-.2.52.03.12.11.24.29.33l.15.08-.07.12-1.54-.87c-.45-.24-.76-.46-.94-.64-.18-.18-.29-.39-.33-.64-.05-.26 0-.49.15-.72.15-.24.37-.41.65-.49.29-.08.63-.07 1.03.05l-.16-1.65c-.04-.37-.1-.64-.19-.8-.08-.18-.24-.33-.46-.48l.08-.09zm1.73 3.72h-.01v-.01h-.01l-.01-.01h-.01l-.01-.01-.01-.01h-.01c-.04-.03-.05-.04-.08-.05-.39-.22-.75-.3-1.05-.24-.31.05-.54.2-.71.46-.15.24-.2.49-.14.75.07.24.23.44.5.59.12.07.3.14.52.2l1.03-1.67zm-7.7-2.12l.63-.93.11.08c-.1.18-.15.3-.16.39-.01.15 0 .29.05.39.07.12.18.24.34.35l.57.38 2.2-2.87c.18-.22.26-.38.26-.48-.03-.14-.11-.24-.26-.35l-.15-.07.08-.11 1.7 1.16-.08.11-.14-.1c-.18-.12-.33-.15-.48-.11-.08.04-.2.15-.37.37l-2.2 2.86.48.34c.19.12.33.2.42.23.12.03.27.03.42-.03.15-.05.29-.15.44-.31l.11.07-.72.86-3.25-2.23zm.4-5.79l-1.43 4.07 2.23-2.27c.2-.22.31-.37.31-.45 0-.14-.07-.26-.2-.38l-.12-.11.08-.1 1.27 1.1-.1.08-.12-.11c-.15-.14-.31-.19-.45-.15-.1.01-.23.12-.42.31l-2.19 2.23c-.14.15-.23.27-.26.37-.03.07-.01.15.01.24.04.1.14.2.27.33l-.08.1-1.03-.9 1.31-3.78-3.9 1.54-1.02-.9.1-.1.12.11c.15.14.31.19.46.16.08-.03.23-.12.41-.31l2.19-2.23c.2-.22.3-.37.3-.46.01-.14-.05-.26-.2-.38l-.12-.11.1-.08 1.54 1.33-.1.1-.12-.11c-.16-.14-.31-.19-.46-.15-.1.01-.23.12-.41.31l-2.24 2.27 4.22-1.66.05.09zm-7.14-.6l1.48-1.18-.71-.78c-.19-.2-.34-.33-.46-.34-.16-.01-.35.05-.57.2l-.1-.1 1.29-1.03.1.1c-.16.16-.26.29-.29.35-.04.08-.04.18-.01.27.03.1.11.22.24.37l.71.78 1.22-.99c.16-.12.26-.22.29-.26.03-.04.03-.1.01-.14 0-.05-.05-.14-.14-.23l-.54-.58c-.18-.2-.33-.34-.44-.41-.11-.05-.24-.11-.41-.11-.22-.03-.49 0-.82.08l-.1-.11 1.21-.45 2.46 2.71-.1.08-.12-.12c-.07-.08-.16-.15-.27-.19-.08-.03-.16-.03-.23 0-.08.03-.2.12-.39.26l-2.44 1.97c-.23.18-.35.33-.38.41-.01.12.04.26.18.39l.11.14-.1.08-2.48-2.72.8-.71.08.11c-.16.19-.26.34-.3.45-.03.1-.03.22.01.33.04.1.14.23.3.41l.91.96zm-2.43-2.3l-.76-1.03 1.33-4.29-2.34 1.5c-.23.16-.38.3-.41.39-.03.12.01.26.12.41l.1.12-.11.08-.98-1.35.12-.07.1.14c.12.16.24.24.41.24.1 0 .24-.07.48-.22l3.43-2.22.07.11-1.43 4.63 2.49-1.62c.26-.16.39-.29.41-.38.04-.12 0-.26-.11-.41l-.1-.14.11-.08.98 1.35-.11.07-.11-.14c-.11-.16-.24-.24-.41-.24-.08 0-.26.08-.48.22l-2.83 1.84c-.05.19-.08.34-.08.42 0 .1.03.2.05.34.03.05.08.15.16.26l-.1.07zm-5.43-8.26l.99-.57.05.12c-.16.11-.27.2-.33.29-.1.12-.14.26-.12.38 0 .14.04.29.14.46l.34.57 3.29-1.7c.27-.14.42-.24.46-.33.04-.12.01-.27-.07-.42l-.1-.15.12-.07 1.01 1.74-.12.07-.08-.15c-.11-.18-.23-.27-.38-.29-.1 0-.26.05-.5.18l-3.31 1.69.29.49c.11.19.2.33.27.38.11.1.23.14.39.15.16.01.34-.01.54-.11l.07.12-1.05.48-1.9-3.33zM3.27 65.4l-.01-.05-.03-.05-.01-.05-.02-.07-.01-.05-.01-.04-.01-.05-.01-.05v-.05l-.01-.05v-.19l-.01-.05.01-.05v-.15l.01-.05v-.05l.01-.05.01-.05.01-.05.01-.05.01-.05.03-.05.01-.05.01-.05.03-.05.03-.05.03-.05.03-.05c.29-.56.78-.97 1.46-1.21.71-.24 1.36-.24 1.99.01.64.26 1.07.68 1.31 1.27.23.6.2 1.18-.08 1.74-.3.56-.8.98-1.52 1.22-.73.26-1.41.23-2.07-.07-.59-.33-.97-.74-1.2-1.31zm.27-.03l.01.04.01.03.01.04.01.03.03.04.01.03.01.03.03.04.01.03.03.03.03.03.01.03.03.03.03.03.03.03.01.01.03.03h.03l.03.01.03.03.04.03.03.01.02.02.03.03.04.01.03.01.04.03.03.01.04.01.03.01.04.01.04.01c.49.15 1.12.1 1.85-.16.75-.26 1.27-.61 1.55-1.06.22-.34.26-.69.11-1.07-.16-.41-.46-.68-.91-.83-.44-.15-1.02-.1-1.76.16-.79.27-1.33.63-1.59 1.06-.22.35-.25.73-.08 1.14zm-1.36-4.34l1.86-.46-.23-.82c-.05-.19-.14-.31-.24-.38-.11-.05-.3-.07-.57-.03l-.03-.14 1.61-.39.04.12c-.19.04-.31.1-.39.16-.07.07-.12.14-.14.23-.03.08-.03.2.01.35l.23.82 1.51-.38c.23-.05.39-.11.46-.15.05-.04.08-.1.11-.18.03-.11.03-.22 0-.33l-.04-.15.12-.03.54 1.92-.13.03-.04-.15c-.05-.19-.15-.31-.29-.37-.1-.03-.27-.01-.56.05l-3.09.78c-.23.05-.39.11-.46.15-.05.04-.08.1-.11.18-.03.11-.03.22 0 .33l.04.15-.12.04-.94-3.33 1.03-.31.03.12c-.2.11-.34.22-.44.33-.07.1-.12.2-.14.33-.01.12.01.31.07.54l.3.97zm.6-6.57l-.28-2.12-1.4.15c-.24.03-.41.07-.49.1-.05.03-.1.1-.14.16-.04.11-.05.2-.04.33l.03.15-.15.03-.24-1.97.14-.01.03.16c.01.11.05.2.12.3.04.07.11.11.19.12.08.01.23.01.48-.01l3.17-.34c.24-.03.41-.07.48-.11.07-.03.11-.08.14-.15.05-.11.07-.22.05-.33l-.03-.15.14-.01.24 1.96-.14.01-.01-.16c-.03-.19-.11-.31-.23-.39-.08-.04-.27-.05-.56-.01l-1.5.16.27 2.12 1.5-.16c.23-.03.39-.05.48-.1.05-.03.1-.08.14-.15.04-.11.05-.22.04-.33l-.01-.16.14-.01.24 1.96-.14.03-.04-.2c-.03-.18-.1-.31-.23-.38-.07-.05-.27-.05-.56-.03l-3.17.35c-.24.03-.41.05-.48.1-.05.03-.11.08-.14.15-.05.11-.07.22-.05.33l.03.16-.14.01-.24-1.96.14-.01.01.16c.01.11.05.2.12.3.05.05.11.1.19.12.08.01.24.01.48-.01l1.42-.16zM.3 49.14l1.93-.03v-1.02c-.01-.26-.05-.44-.14-.53-.11-.11-.3-.18-.59-.18v-.14l1.7-.01v.12c-.23.03-.38.07-.45.11-.1.04-.15.1-.2.19-.04.1-.07.24-.05.44v1.02l1.62-.01c.22 0 .35-.01.39-.03.05-.03.1-.05.12-.11.03-.04.04-.12.04-.26l-.01-.78c-.01-.26-.03-.45-.07-.57-.04-.11-.11-.23-.23-.34-.15-.14-.38-.27-.68-.42v-.15l1.24.38.04 3.58h-.13v-.16c0-.11-.03-.2-.08-.3-.04-.08-.11-.12-.19-.15-.07-.03-.23-.04-.46-.04l-3.21.04c-.31 0-.5.04-.57.1-.1.08-.14.22-.14.41v.16H.04L0 46.88l1.07-.05.01.14c-.26.03-.44.1-.54.16-.1.05-.16.14-.22.26-.04.1-.05.24-.04.49l.02 1.26zm3.28-6.24l-.18 1.8.73.38c.19.1.33.15.41.15.08.01.15-.01.22-.08.05-.05.11-.2.15-.42l.14.01-.15 1.45-.14-.01c-.01-.19-.05-.31-.11-.38-.1-.12-.33-.27-.67-.45L.12 43.36v-.11l4.24-1.27c.34-.1.57-.2.68-.3.11-.1.18-.23.2-.42l.14.01-.17 1.83-.14-.01c0-.19-.01-.31-.07-.38-.04-.07-.11-.11-.19-.12-.11 0-.27.03-.52.1l-.71.21zm-.29.08l-2.05.6 1.9.99.15-1.59zm1.63-6l.05-.1 1.22.64-.75 3.51-.12-.03.04-.16c.03-.19 0-.34-.12-.45-.05-.05-.23-.12-.5-.16l-3.13-.6c-.3-.05-.49-.07-.57-.01-.12.07-.2.19-.24.35l-.04.18-.12-.03.44-2.05.12.03c-.04.24-.05.41-.03.52.03.11.08.18.15.23.05.05.23.1.5.15l3.05.57c.19.04.33.04.42.03.04-.01.1-.05.14-.11.03-.05.08-.22.14-.52l.08-.33c.07-.35.1-.6.07-.76-.01-.15-.08-.29-.2-.44-.12-.12-.31-.29-.6-.46zm-2.28-4.63l1.13.26-.04.12c-.2-.03-.35-.03-.45-.01-.15.04-.29.1-.38.19-.1.1-.18.24-.23.42l-.19.63 3.61.99c.29.07.48.1.57.05.12-.05.22-.18.27-.35l.04-.15.14.04-.59 1.89-.14-.04.05-.15c.05-.19.04-.34-.05-.45-.07-.07-.23-.15-.49-.22l-3.61-.99-.18.54c-.05.2-.1.35-.08.45.01.14.05.24.16.37.1.12.26.2.46.29l-.04.12L1.52 36l1.12-3.65zm2.92-1.22l.86-1.99-1.31-.5c-.23-.1-.39-.14-.48-.14-.07 0-.14.01-.2.07-.1.07-.16.16-.2.26l-.05.15-.14-.05.79-1.82.14.05-.07.14c-.04.1-.07.2-.04.31 0 .08.03.15.1.2.05.04.2.11.42.2l2.95 1.13c.23.1.39.14.48.14.07 0 .14-.03.2-.07.08-.08.15-.16.19-.26l.08-.15.12.04-.8 1.84-.12-.05.07-.15c.08-.18.08-.33 0-.45-.04-.07-.2-.16-.48-.27l-1.39-.53-.87 1.99 1.4.53c.22.08.38.14.46.14.07 0 .14-.03.2-.08.08-.07.16-.15.2-.24l.07-.16.12.05-.79 1.82-.14-.04.07-.15c.08-.18.08-.33 0-.45-.04-.08-.2-.16-.48-.27l-2.95-1.14c-.23-.08-.39-.14-.48-.14-.07 0-.14.03-.2.08-.08.07-.15.15-.2.26l-.07.15-.12-.05.8-1.82.12.05-.05.14c-.04.1-.05.2-.04.31 0 .07.04.14.1.19.05.05.2.12.42.2l1.31.53zm4.09-8.72l.79-1.21.12.05c-.1.18-.14.34-.12.45.01.12.12.35.33.72.22.37.39.73.53 1.13.34-.05.59-.12.76-.2.18-.1.31-.2.39-.34.08-.14.12-.27.11-.41-.01-.14-.08-.27-.22-.39l.16-.07c.24.24.38.49.42.72.03.24-.03.48-.16.68-.11.16-.26.3-.45.41-.2.11-.48.2-.83.27.08.37.1.68.05.93-.04.23-.12.46-.27.69-.2.31-.46.52-.76.6-.31.08-.59.05-.84-.1-.24-.15-.44-.38-.57-.69-.15-.31-.2-.78-.16-1.39-.27-.04-.49-.08-.64-.12-.16-.05-.31-.11-.44-.19-.35-.19-.54-.48-.57-.83-.01-.27.05-.53.22-.78.15-.23.34-.38.59-.44.24-.07.46-.03.68.1.22.12.37.3.44.54.07.23.08.59.05 1.06.63.03 1.21.01 1.78-.03-.2-.6-.45-.99-.75-1.16-.1-.07-.2-.08-.31-.07-.08.01-.16.05-.22.12l-.11-.05zm1.56 1.85h-.05l-.04.01h-.18l-.04.01h-.17l-.04.01h-.19l-.03.01h-.41c-.24 0-.52-.01-.86-.04 0 .31.04.59.12.8.1.22.24.38.45.5.23.12.46.16.72.12.24-.03.45-.16.6-.39.08-.12.14-.24.15-.39.02-.13.01-.34-.03-.64zm-2.23-.67l.01-.05v-.17l.01-.05v-.05l-.01-.04v-.13l-.01-.04v-.04l-.01-.05-.01-.04v-.04l-.01-.04-.03-.05c-.08-.22-.2-.37-.41-.49-.14-.08-.3-.11-.45-.08-.15.04-.27.11-.35.24-.11.16-.14.34-.07.5.07.15.16.26.29.34.1.05.22.1.37.14.15.05.38.09.68.14zm4.61-5.43l1.5-1.61-1.07-.88c-.19-.15-.31-.24-.39-.27-.07-.01-.14-.01-.22.01-.12.04-.2.1-.29.18l-.11.12-.11-.08 1.39-1.48.1.08-.11.12c-.08.08-.14.18-.15.29-.03.07-.01.15.03.22.03.07.15.18.33.31l2.41 1.99c.19.15.31.24.39.27.07.01.14.01.22-.01.11-.04.2-.1.29-.18l.11-.12.09.08-1.39 1.48-.1-.08.11-.12c.14-.14.18-.29.16-.42-.03-.08-.15-.22-.37-.39l-1.13-.94-1.5 1.62 1.13.93c.18.16.33.24.39.27.07.01.14.01.22-.01.11-.03.2-.1.29-.18l.11-.12.11.08-1.39 1.48-.1-.07.11-.12c.14-.15.19-.3.16-.44-.03-.08-.14-.22-.37-.39l-2.41-1.99c-.18-.15-.31-.24-.39-.27-.07-.01-.14-.01-.22.01-.11.04-.2.11-.27.18l-.12.12-.1-.08 1.37-1.48.11.08-.12.12c-.07.08-.12.18-.15.29-.03.08-.01.15.03.22s.15.18.33.33l1.09.85zm3.95-6.68l-.08-.1 1.28-1.09.1.1-.15.12c-.14.11-.19.26-.16.44.01.1.11.23.3.42l1.33 1.4c.33.34.54.64.67.9.11.24.12.53.03.84-.08.31-.3.64-.67.95-.39.33-.76.52-1.09.57-.34.04-.65-.01-.94-.16-.22-.1-.52-.35-.91-.78l-1.28-1.35c-.2-.2-.37-.33-.49-.34-.12-.01-.26.04-.39.16l-.14.11-.08-.1 1.55-1.32.1.08-.14.12c-.15.12-.22.26-.19.41.01.1.11.23.3.44l1.43 1.5c.14.14.29.29.48.44.2.14.37.24.54.29.15.03.33.03.52-.01.19-.05.38-.15.56-.31.24-.2.41-.44.5-.69.1-.26.1-.49.03-.71-.08-.2-.3-.49-.64-.86l-1.33-1.4c-.22-.22-.37-.33-.46-.34-.15-.01-.29.04-.42.15l-.16.12zm7.04.56l-3.89-2.22 1.85 2.56c.16.23.3.37.39.39.14.03.29-.01.44-.11l.15-.1.08.1-1.43.93-.08-.11.15-.1c.18-.11.26-.23.26-.38 0-.1-.08-.23-.23-.45l-1.81-2.5c-.12-.18-.23-.29-.33-.34-.07-.03-.15-.04-.26-.03-.1 0-.23.07-.39.18l-.08-.11L20.57 9l3.62 2.05-.71-3.92 1.14-.73.08.1-.14.1c-.18.11-.27.24-.27.38 0 .1.08.24.23.46l1.81 2.5c.18.23.31.37.41.38.14.04.29 0 .44-.11l.15-.08.07.1-1.73 1.12-.08-.11.15-.1c.18-.11.26-.23.26-.38 0-.08-.08-.23-.23-.45l-1.85-2.56.76 4.23-.1.06zm5.3-4.67l-1.73.8.05.79c.01.19.04.33.08.41.03.07.1.11.18.12.1.03.24-.01.46-.1l.07.11-1.4.67-.05-.12c.16-.12.27-.22.3-.29.05-.15.07-.41.04-.78l-.23-4.15.1-.04 3.37 2.72c.27.22.48.35.63.38.14.04.3.03.49-.05l.05.11-1.73.83-.07-.12c.18-.1.27-.18.31-.24.04-.08.04-.15 0-.22-.04-.1-.16-.22-.35-.37l-.57-.46zm-.22-.17l-1.63-1.33.11 2.04 1.52-.71zm.96-3.61l1.27-.42 4.05 2.31-.94-2.5c-.11-.27-.2-.42-.3-.46-.11-.07-.26-.07-.45 0l-.15.05-.05-.12 1.63-.54.04.11-.16.07c-.2.07-.31.16-.37.3-.03.08.01.26.11.5l1.39 3.69-.12.02-4.38-2.49 1.02 2.68c.1.27.19.44.27.48.12.07.27.07.45 0l.18-.05.04.12-1.62.54-.05-.12.16-.05c.2-.05.33-.16.37-.3.01-.1-.01-.26-.11-.5l-1.14-3.03c-.19-.11-.33-.18-.42-.19-.08-.03-.2-.04-.35-.04-.07.01-.18.03-.31.08l-.06-.14zM41.79.52l.31 1.56-.14.03c-.1-.3-.22-.52-.37-.68-.15-.15-.34-.27-.57-.34-.22-.07-.44-.08-.65-.04-.26.04-.45.16-.59.33-.14.18-.18.35-.14.53.03.14.1.26.23.35.18.14.57.3 1.18.48.5.15.84.27 1.03.37.19.1.35.2.48.37.12.14.2.31.24.49.07.34-.01.67-.24.97-.22.28-.56.47-1 .56-.15.03-.27.04-.41.04-.08.01-.23 0-.49-.04-.24-.03-.39-.04-.46-.03-.05.01-.1.04-.12.08-.03.04-.04.11-.03.22l-.13.03-.33-1.56.14-.03c.14.33.26.54.41.69.14.15.31.26.56.31.23.08.48.08.73.04.3-.05.52-.16.67-.35.14-.18.19-.37.15-.57-.03-.11-.09-.22-.18-.33-.08-.1-.2-.19-.37-.26-.11-.05-.38-.15-.84-.29-.46-.15-.8-.27-.99-.37-.2-.1-.37-.22-.49-.35-.12-.15-.2-.31-.24-.5-.05-.33.01-.63.23-.91.22-.29.54-.46.95-.54.26-.04.54-.03.86.04.14.03.24.04.3.03.05-.01.11-.04.15-.08.01-.04.04-.11.04-.23l.12-.02zm2.83.01l.16 1.82 1.09-.1c.29-.01.46-.08.54-.16.12-.11.18-.3.16-.54l.14-.01.15 1.59-.14.01c-.04-.23-.1-.37-.14-.42-.05-.08-.12-.14-.23-.18-.11-.03-.26-.04-.46-.03l-1.09.1.15 1.52c.03.2.04.33.07.37.03.04.05.07.11.1.05.01.14.03.29.01l.83-.07c.27-.03.46-.05.58-.11.12-.04.23-.12.34-.24.14-.15.27-.37.41-.67l.15-.01-.31 1.2-3.78.31-.01-.12.18-.03c.11 0 .22-.04.33-.1.07-.04.11-.11.14-.18.01-.08.01-.23 0-.45l-.29-3.01c-.04-.3-.08-.48-.15-.53-.1-.08-.24-.12-.45-.1l-.18.01V.39l3.78-.31.15 1.01-.15.01c-.07-.23-.14-.41-.22-.49-.07-.08-.16-.15-.29-.19-.11-.01-.27-.01-.52 0l-1.34.11zm8.45 4.19l-1.32-.01-1.63-2.2h-.39c-.04-.01-.08-.01-.11-.01l-.02 1.35c-.01.29.01.46.08.54.1.1.23.15.41.15h.19v.14l-2.1-.04V4.5l.18.01c.2 0 .35-.05.45-.18.05-.07.08-.24.08-.5l.05-3.01c.01-.29-.01-.48-.08-.54-.1-.1-.23-.15-.41-.15l-.19-.01V0l1.8.03c.52.01.9.05 1.14.14.24.07.46.2.63.41.18.19.24.42.24.68 0 .3-.11.53-.31.75-.19.2-.5.34-.93.42l.99 1.35c.23.31.42.52.58.63.18.11.39.16.65.2v.11zm-3.44-2.45h.09c.03.01.05.01.07.01.46 0 .82-.08 1.06-.27.23-.19.35-.44.37-.72 0-.3-.1-.53-.27-.72-.19-.18-.44-.27-.75-.29-.14 0-.33.03-.56.07l-.01 1.92zM58.28.68l-.01.12c-.18.01-.31.05-.41.11-.15.1-.29.26-.41.48l-2.22 3.73-.13-.03L53.79.91c-.07-.22-.12-.34-.15-.39-.05-.08-.12-.14-.2-.19-.08-.05-.19-.1-.34-.12l.01-.12 2 .23-.01.12c-.22 0-.37.01-.45.07-.07.04-.11.1-.12.18-.01.12.01.3.1.56l.88 2.83L57 1.55c.15-.26.23-.44.24-.53.01-.07-.01-.14-.08-.2-.05-.07-.18-.12-.33-.16-.03 0-.04-.01-.07-.03l.01-.12 1.51.17zm1.81 5.01l-.04.14-2.04-.43.03-.12.16.03c.2.04.35.01.48-.07.07-.07.14-.23.19-.5l.67-2.94c.05-.23.08-.38.07-.46-.01-.05-.05-.11-.11-.16-.1-.08-.2-.12-.31-.15L59 .99l.04-.12 2.05.41-.03.12-.16-.03c-.2-.04-.35-.03-.46.07-.08.05-.15.23-.2.49l-.67 2.95c-.05.22-.07.38-.07.45.01.07.05.12.12.18.08.07.19.12.3.15l.17.03zm5.97-3.19l-.38 1.54-.1-.04c0-.49-.1-.87-.3-1.14-.19-.27-.49-.46-.86-.57-.31-.08-.61-.1-.91-.01-.3.08-.57.26-.83.54-.24.29-.45.68-.61 1.16-.12.41-.16.78-.12 1.1.04.34.18.63.39.86.22.23.5.41.86.5.31.1.6.11.87.04.27-.05.6-.22.99-.5l.1.1c-.37.33-.73.53-1.12.63-.37.1-.78.08-1.2-.04-.79-.22-1.29-.67-1.55-1.33-.19-.5-.19-1.03-.01-1.58.14-.45.38-.82.71-1.13.32-.33.7-.53 1.14-.63.44-.11.87-.1 1.31.03.34.11.65.27.93.53.08.08.14.12.19.14.05.01.11 0 .18-.03.08-.04.15-.11.2-.2l.12.03zm2.28 1.23l-.75 1.69.99.39c.26.11.45.14.57.1.15-.04.3-.19.42-.42l.12.05-.67 1.47-.12-.04c.05-.22.08-.37.08-.44-.01-.1-.04-.18-.12-.26-.07-.07-.2-.15-.38-.23l-1.01-.39-.63 1.41c-.1.18-.12.3-.14.35 0 .04.01.08.05.14.05.04.13.08.25.14l.78.3c.24.1.45.15.57.16.14.01.27 0 .42-.05.19-.08.42-.22.69-.42l.14.05-.87.91-3.5-1.39.05-.12.16.08c.11.03.22.04.34.04.08 0 .15-.04.2-.1.05-.05.12-.19.23-.39l1.24-2.79c.12-.26.16-.44.14-.53-.04-.11-.15-.2-.34-.29l-.15-.05.05-.12 3.5 1.39-.37.97-.14-.05c.05-.24.07-.42.05-.53-.01-.11-.07-.2-.16-.29-.08-.07-.23-.15-.45-.24l-1.24-.5zm6.38 2.5l-.8 1.41-.12-.07c.11-.29.16-.54.16-.75-.01-.2-.08-.41-.22-.6-.12-.19-.29-.33-.49-.44-.22-.11-.45-.14-.67-.08-.22.05-.37.16-.46.33-.07.12-.08.26-.05.41.05.22.24.59.6 1.09.3.41.48.71.57.88.08.19.12.38.12.56-.01.19-.05.38-.15.53-.18.31-.45.52-.84.61-.38.1-.78.04-1.17-.16-.12-.05-.24-.14-.34-.2-.07-.04-.18-.15-.35-.33-.16-.16-.29-.26-.34-.29-.05-.03-.1-.04-.15-.01-.05 0-.1.05-.18.14l-.12-.05.82-1.4.11.05c-.11.33-.16.59-.15.78.01.19.08.39.22.59.14.19.33.35.56.46.26.14.52.18.73.12.23-.05.41-.18.52-.35.05-.1.08-.22.08-.35 0-.12-.04-.27-.11-.42-.05-.1-.2-.34-.46-.72-.26-.39-.45-.68-.53-.87-.1-.2-.14-.39-.14-.57 0-.19.04-.35.14-.53.18-.29.44-.48.8-.57.35-.1.72-.04 1.09.14.23.12.45.3.65.54.08.11.15.18.2.19.05.04.11.04.16.03.05-.01.12-.05.19-.14l.12.04zm.83 4.15h.07l.04-.01h.03l.04-.01h.04l.03-.01.03-.01.04-.01.03-.01.03-.01.04-.03.03-.01.03-.03.03-.01.01-.03.03-.03.03-.01.01-.03.03-.03.01-.03.01-.03.01-.04.01-.04.01-.03V9.9l.01-.04.01-.03V9.8l.01-.03V9.7c0-.38-.33-.68-.72-.68-.41 0-.72.3-.72.68.02.37.33.68.74.68zm6.6 1.03l.08-.11 1.33 1.02-.08.11-.14-.11c-.15-.12-.31-.15-.5-.1-.08.03-.22.14-.39.34l-1.25 1.46c-.31.37-.58.61-.83.76-.26.14-.54.19-.9.16-.34-.01-.71-.18-1.09-.48-.42-.31-.68-.63-.78-.93-.1-.3-.1-.6.01-.9.08-.2.3-.53.68-.97l1.21-1.4c.19-.22.29-.39.27-.5 0-.12-.07-.23-.22-.34l-.14-.11.08-.1 1.63 1.24-.08.1-.15-.11c-.15-.11-.3-.15-.45-.11-.1.03-.23.15-.41.34l-1.36 1.58c-.11.14-.24.3-.37.5-.12.2-.2.38-.22.54-.01.15.01.31.1.49.07.16.22.33.41.46.24.2.52.31.8.37.29.04.53.01.75-.1.2-.1.48-.34.8-.73l1.27-1.46c.19-.22.29-.38.27-.48 0-.14-.07-.24-.22-.37l-.11-.06zm4.38 3.53l-1.21 1.13-.1-.08c.2-.24.33-.48.38-.68.05-.2.05-.41-.01-.63-.07-.22-.18-.39-.34-.54-.18-.18-.38-.26-.61-.26-.22-.01-.41.05-.54.18-.11.11-.16.23-.18.38-.03.22.07.63.24 1.2.16.48.24.82.27 1.01.03.2.01.39-.05.57-.05.19-.16.34-.3.48-.27.24-.6.37-.99.35-.39-.01-.75-.16-1.07-.48-.1-.1-.19-.19-.26-.29-.04-.05-.12-.19-.23-.41-.12-.2-.2-.33-.24-.37-.04-.04-.08-.05-.14-.05s-.12.03-.22.1l-.1-.1 1.18-1.13.1.1c-.19.29-.33.52-.37.71-.05.18-.04.39.03.61.08.22.2.42.39.6.22.2.44.3.68.31.23.01.44-.07.58-.22.08-.07.15-.18.19-.3.04-.14.04-.27.03-.45-.01-.11-.1-.38-.23-.82-.14-.44-.22-.76-.24-.98-.03-.2-.01-.41.04-.57.05-.18.16-.33.3-.48.26-.23.56-.34.94-.34.37.01.71.16 1.01.44.18.18.34.41.45.68.05.14.11.22.15.26.04.04.1.07.15.07.04 0 .12-.03.22-.1l.1.1zm.43 5.36l-1.22-1.4-.8.22c-.2.05-.34.11-.41.16-.05.05-.08.12-.08.2 0 .08.07.22.2.41l-.11.07-.98-1.13.11-.08c.15.14.27.19.35.2.18.03.45-.01.82-.12l4.24-1.14.07.08-2.08 3.7c-.16.3-.24.52-.24.65-.01.15.04.3.16.45l-.11.08-1.22-1.41.1-.08c.14.14.24.22.34.23.08.01.15 0 .22-.04.08-.07.18-.2.3-.41l.34-.64zm.14-.25l1.01-1.8-2.08.57 1.07 1.23z"/>
	</symbol>
	<symbol id="usa" viewBox="0 0 260 100">
		<path d="M74.28 17.68l7.51-.22-8.31 4.84-1.23 7.26-3.83-4.33-8.27 4.73 5.96-7.44-3.9-4.44 7.55-.22 5.74-7.26-1.22 7.08zm77.42 56.44c-2.49 0-4.59-2.13-4.59-4.66 0-2.56 2.09-4.66 4.59-4.66 2.49 0 4.51 2.13 4.51 4.66.04 2.53-1.98 4.66-4.51 4.66m27.23-6.14c-2.06 3.94-4.62 6.21-8.63 6.21-5.92 0-10-5.74-10-14.01 0-8.49 4.08-14.19 10.15-14.19 5.38 0 7.22 4.01 8.59 6.82v-6.17h4.44v26.97c0 7.04-4.3 11.05-11.74 11.05-6.14 0-10.33-2.82-10.33-6.86 0-.65-.04-1.52.29-2.46l3.94 1.77c-.36 2.78 2.89 3.79 6.1 3.79 4.44 0 7.15-2.09 7.15-5.67l.04-7.25m-13.79-8.56c0 4.77.65 7.29 2.46 9.14 1.08 1.12 2.56 1.73 4.41 1.73 4.41 0 7.01-3.57 7.01-9.53 0-6.86-2.89-11.16-7.44-11.16-4.1.04-6.44 3.58-6.44 9.82m46.47.33c0 8.81-4.98 14.44-12.64 14.44-7.26 0-12.31-5.85-12.31-14.3 0-8.16 5.09-13.97 12.39-13.97 7.36 0 12.56 5.71 12.56 13.83m-20.19.43c0 6.43 2.89 10.11 7.98 10.11 4.62 0 7.44-3.83 7.44-10.26 0-7.29-3.43-10.29-7.87-10.29-4.66.04-7.55 3.65-7.55 10.44m19.5-13.54h4.44l6.68 20.4 6.5-20.4h4.37L224.5 73.4h-4.88l-8.7-26.76zM59.73 20.28C29.76 24.18 7.55 34.29 0 42.96c7.87-7.33 33.19-15.82 61.79-20.26m10.4 11.01c-.76 0-1.7.07-2.38.51-1.73 1.12-1.63 4.73-1.63 6.46v15.96c0 4.84-.25 10.4-4.15 14.01-3.43 3.18-7.91 4.04-12.57 4.04-2.96 0-5.45-.32-8.27-1.3-7.58-2.64-9.89-7.19-9.89-14.55V33.71h-5.06v-1.23H48.1v1.23h-5.06v23.83c0 3.57-.33 7.62 2.02 10.69 2.28 3 5.16 4.01 8.99 4.01 4.26 0 8.88-1.66 10.94-5.42 1.73-3.18 1.63-7.01 1.63-10.51v-16.2c0-3.76-.14-6.46-4.73-6.46h-1.23v-1.16h11.99v1.23h-.46M89.7 74.38c-3.72 0-6.61-1.05-10.07-2.28-.32-.11-.72-.25-1.01-.36-.72-.29-1.91-1.12-2.71-1.12-1.59 0-1.3 1.55-1.91 2.28l-.07.51h-1.08l-.32-15.49h1.23c1.01 4.04 2.31 7.19 5.27 10.26 2.89 3 6.28 4.98 10.65 4.98 4.8 0 9.1-3.07 9.1-7.91 0-5.52-4.69-6.82-9.35-7.91l-3.72-.87c-3.32-.72-6.61-1.34-9.21-3.57-1.01-.87-1.73-1.77-2.38-2.96-1.08-1.95-1.55-4.12-1.55-6.32 0-7.55 6.36-12.24 13.83-12.24 3.47 0 6.36 1.05 9.5 2.38.9.36 1.99.97 3 .97 1.48 0 1.55-1.3 1.59-2.38h1.23v13.22h-1.3c-1.3-6.64-5.85-12.96-13.54-12.96-4.37 0-8.92 2.53-8.92 7.11 0 4.84 5.13 5.96 9.17 6.75 2.17.43 4.37.72 6.46 1.23 7.04 1.59 10.91 5.85 10.91 12.86.01 8.18-6.39 13.82-14.8 13.82m35.17-.98v-1.19h4.84l-4.33-11.81h-11.56l-2.53 6.83c-.36.97-.61 2.09-.61 3.14 0 2.09 3.14 1.84 4.59 1.84v1.16h-12.06v-1.16h1.44c3.03 0 4.15-2.09 5.09-4.62l13.25-36.26h.87l15.93 40.88h4.01v1.16l-18.93.03m-5.2-28.93l-5.34 14.7h10.62l-5.28-14.7zm-37.7 40.16c-.43.54-.61.72-1.05 1.01-.94.69-2.17 1.05-3.36 1.05-3.25 0-5.38-2.02-5.38-5.16 0-3.57 2.09-5.78 5.49-5.78 1.7 0 3.07.87 3.83 1.84l-.9 1.16c-.72-1.05-1.77-1.7-3-1.7-2.38 0-3.83 1.66-3.83 4.41 0 2.49 1.41 3.97 3.79 3.97 1.59 0 2.35-.76 2.82-1.26V82.5h-4.33v-1.26h5.92v3.39m9.39-1.77c0 2.35-1.41 3.83-3.58 3.83-2.06 0-3.5-1.55-3.5-3.76 0-2.17 1.44-3.68 3.5-3.68 2.1-.04 3.58 1.48 3.58 3.61m-5.7.11c0 1.7.83 2.67 2.28 2.67 1.3 0 2.09-1.01 2.09-2.71 0-1.95-.97-2.71-2.24-2.71-1.34 0-2.13.98-2.13 2.75m7.04-3.36h1.23l1.91 5.42 1.81-5.42h1.23l-2.35 7.08h-1.37l-2.46-7.08zm14.12 5.06c-.29.61-.47.83-.79 1.16-.65.58-1.44.87-2.38.87-2.02 0-3.36-1.52-3.36-3.72s1.41-3.72 3.43-3.72c1.88 0 3.21 1.44 3.21 3.36 0 .22 0 .47-.04.76h-5.27c.11 2.38 1.84 2.38 2.13 2.38 1.44 0 1.88-1.12 2.06-1.55l1.01.46m-1.23-2.28c-.11-2.2-1.77-2.2-1.95-2.2-1.19 0-1.91.79-1.99 2.2h3.94zm4.8-1.41c.4-.65.9-1.55 2.02-1.55.14 0 .32 0 .54.04v1.26c-.32-.04-.47-.07-.65-.07-1.12 0-1.91.76-1.91 1.84v4.19h-1.26v-7.08h1.3l-.04 1.37m10.69 5.71h-1.3v-4.55c0-1.05-.58-1.66-1.59-1.66-1.12 0-1.91.72-1.91 1.77v4.48h-1.3v-7.08h1.3v1.26c.72-.98 1.55-1.44 2.49-1.44 1.37 0 2.31.94 2.31 2.35v4.87m12.78 0h-1.26v-4.55c0-1.05-.58-1.66-1.48-1.66-1.12 0-1.73.69-1.73 2.06v4.19h-1.3v-4.3c0-1.37-.47-1.99-1.48-1.99s-1.73.76-1.73 1.84v4.41h-1.26v-7.08h1.26v1.3c.61-1.05 1.3-1.48 2.24-1.48 1.08 0 1.7.54 2.13 1.55.43-.61 1.05-1.55 2.38-1.55s2.27.97 2.27 2.31v4.95m8.7-2.02c-.29.61-.47.83-.79 1.16-.65.58-1.48.87-2.38.87-2.02 0-3.36-1.52-3.36-3.72s1.41-3.72 3.43-3.72c1.88 0 3.21 1.44 3.21 3.36 0 .22 0 .47-.04.76h-5.27c.11 2.38 1.84 2.38 2.13 2.38 1.44 0 1.88-1.12 2.06-1.55l1.01.46m-1.26-2.28c-.11-2.2-1.77-2.2-1.95-2.2-1.19 0-1.91.79-1.99 2.2h3.94zm9.6 4.3h-1.3v-4.55c0-1.05-.58-1.66-1.55-1.66-1.12 0-1.91.72-1.91 1.77v4.48h-1.3v-7.08h1.3v1.26c.72-.98 1.55-1.44 2.49-1.44 1.37 0 2.31.94 2.31 2.35v4.88m4.23-9.98v2.71h1.63v1.01h-1.63v4.26c0 .76.14.97.69.97.18 0 .4-.04.83-.14v1.01c-.58.11-.9.14-1.16.14-1.19 0-1.63-.36-1.63-1.3V80.4h-1.37v-1.01h1.37v-1.84l1.27-.83m39.9-.36h2.35v10.33h-1.37v-9.17l-3 9.17h-1.48l-3-9.17v9.17h-1.37V76.36h2.35l2.78 8.41 2.74-8.41zm4.76 4.48c.29-.61.76-1.63 3.11-1.63 2.78 0 2.78 1.37 2.78 2.09l-.04 3.47c0 .87.04.94.61.97v.83c-.4.11-.61.14-.83.14-1.01 0-1.08-.76-1.08-1.37-.43.51-1.23 1.37-2.56 1.37-1.34 0-2.35-.98-2.35-2.31 0-.54.25-1.16.69-1.55.54-.51 1.3-.79 2.53-.9 1.08-.11 1.23-.14 1.7-.61 0-.87-.33-1.08-1.44-1.08-1.16 0-1.77.32-2.13 1.12l-.99-.54m4.63 1.37c-.54.4-.69.43-1.55.58-.87.14-1.26.32-1.63.69-.25.25-.4.58-.4.9 0 .76.58 1.3 1.44 1.3.54 0 1.05-.22 1.44-.58.51-.47.69-.9.69-1.81l.01-1.08zm8.77-6.03h1.3v10.33h-1.26v-1.66c-.47.79-.9 1.84-2.42 1.84-1.73 0-2.85-1.44-2.85-3.72 0-2.2 1.16-3.68 2.85-3.68 1.48 0 2.02 1.01 2.42 1.84l-.04-4.95m-3.93 6.93c0 1.59.69 2.53 1.84 2.53.51 0 1.01-.18 1.37-.54.54-.47.72-1.12.72-2.2 0-2.71-1.95-2.71-2.09-2.71-1.23.11-1.84 1.08-1.84 2.92m13.93 1.56c-.29.61-.47.83-.79 1.16-.65.58-1.44.87-2.38.87-2.02 0-3.36-1.52-3.36-3.72s1.41-3.72 3.43-3.72c1.88 0 3.21 1.44 3.21 3.36 0 .22-.04.47-.04.76h-5.27c.11 2.38 1.84 2.38 2.13 2.38 1.44 0 1.88-1.12 2.06-1.55l1.01.46m-1.22-2.28c-.11-2.2-1.77-2.2-1.95-2.2-1.19 0-1.91.79-1.99 2.2h3.94zm7.15-6.03h6.9l-.4 1.23h-4.98v3.18h4.55V82h-4.55v3.47h4.98l.43 1.23h-6.93V76.36zm8.7 4.52c.29-.61.76-1.63 3.11-1.63 2.78 0 2.78 1.41 2.78 2.09l-.04 3.47c0 .87.04.94.61.97v.83c-.4.11-.61.14-.83.14-1.01 0-1.08-.76-1.08-1.37-.43.51-1.23 1.37-2.56 1.37-1.34 0-2.35-.97-2.35-2.31 0-.54.25-1.16.69-1.55.54-.51 1.3-.79 2.53-.9 1.08-.11 1.23-.14 1.7-.61 0-.87-.33-1.08-1.44-1.08-1.16 0-1.77.33-2.13 1.12l-.99-.54m4.62 1.4c-.54.4-.69.43-1.55.58-.87.14-1.26.32-1.63.69-.25.25-.4.58-.4.9 0 .76.58 1.3 1.44 1.3.51 0 1.05-.22 1.44-.58.51-.47.69-.9.69-1.77l.01-1.12zm4.55 1.88c.11 1.08.83 1.59 2.17 1.59 1.05 0 1.84-.47 1.84-1.05 0-.61-.58-.94-1.99-1.19-1.48-.25-2.82-.72-2.82-2.2 0-1.23 1.19-2.06 2.96-2.06 2.2 0 2.85 1.44 2.92 1.91l-.9.58c-.25-1.01-.94-1.48-2.06-1.48-.98 0-1.73.43-1.73.97 0 .58.58.9 1.95 1.12.32.07 2.89.29 2.92 2.2 0 .07 0 2.2-3.25 2.2-.9 0-1.66-.22-2.2-.65-.43-.32-.61-.61-.87-1.37l1.06-.57m6.72-4.55h1.23l1.99 5.53 1.77-5.53H260l-2.46 7.33-.11.4c-.4 1.19-.65 2.06-2.38 2.06-.22 0-.47 0-.87-.07v-1.01c.43.07.61.07.83.07.83 0 1.01-.22 1.48-1.59l-2.7-7.19"/>
	</symbol>
</svg>